<svg width="215" height="182" viewBox="0 0 215 182" fill="none" xmlns="http://www.w3.org/2000/svg">
<g filter="url(#filter0_dddd_8819_11792)">
<rect x="15.6713" y="3.0332" width="183" height="123.348" rx="15.1657" fill="#0042D2"/>
<path d="M29.2092 14.9155L27.8322 17.5482V19.1437H27.2801V17.5482L25.897 14.9155H26.5097L27.5531 17.0569L28.5965 14.9155H29.2092ZM31.2413 19.1983C30.9299 19.1983 30.6468 19.1275 30.3921 18.986C30.1413 18.8444 29.9432 18.6442 29.7976 18.3854C29.656 18.1225 29.5852 17.8192 29.5852 17.4754C29.5852 17.1357 29.658 16.8365 29.8036 16.5776C29.9533 16.3148 30.1555 16.1146 30.4103 15.9771C30.665 15.8355 30.9502 15.7647 31.2656 15.7647C31.5811 15.7647 31.8662 15.8355 32.121 15.9771C32.3757 16.1146 32.5759 16.3127 32.7215 16.5716C32.8712 16.8304 32.946 17.1317 32.946 17.4754C32.946 17.8192 32.8691 18.1225 32.7155 18.3854C32.5658 18.6442 32.3616 18.8444 32.1028 18.986C31.8439 19.1275 31.5568 19.1983 31.2413 19.1983ZM31.2413 18.713C31.4395 18.713 31.6255 18.6665 31.7994 18.5734C31.9733 18.4804 32.1129 18.3409 32.218 18.1549C32.3272 17.9688 32.3818 17.7424 32.3818 17.4754C32.3818 17.2085 32.3292 16.9821 32.2241 16.796C32.1189 16.61 31.9814 16.4725 31.8116 16.3835C31.6417 16.2905 31.4577 16.244 31.2595 16.244C31.0573 16.244 30.8713 16.2905 30.7014 16.3835C30.5356 16.4725 30.4022 16.61 30.3011 16.796C30.2 16.9821 30.1494 17.2085 30.1494 17.4754C30.1494 17.7464 30.1979 17.9749 30.295 18.1609C30.3961 18.347 30.5296 18.4865 30.6954 18.5795C30.8612 18.6685 31.0432 18.713 31.2413 18.713ZM36.62 15.8193V19.1437H36.068V18.6523C35.9628 18.8222 35.8152 18.9556 35.6251 19.0527C35.4391 19.1457 35.2329 19.1922 35.0064 19.1922C34.7476 19.1922 34.515 19.1396 34.3088 19.0345C34.1025 18.9253 33.9387 18.7635 33.8174 18.5492C33.7001 18.3348 33.6415 18.074 33.6415 17.7666V15.8193H34.1874V17.6938C34.1874 18.0214 34.2703 18.2742 34.4361 18.4521C34.602 18.626 34.8284 18.713 35.1156 18.713C35.4108 18.713 35.6433 18.622 35.8132 18.44C35.9831 18.258 36.068 17.9931 36.068 17.6453V15.8193H36.62ZM38.1041 16.3592C38.2012 16.1692 38.3387 16.0216 38.5166 15.9164C38.6986 15.8113 38.919 15.7587 39.1779 15.7587V16.3289H39.0323C38.4135 16.3289 38.1041 16.6646 38.1041 17.3359V19.1437H37.5521V15.8193H38.1041V16.3592ZM46.7465 14.9155L45.5211 19.1437H44.9023L43.9196 15.7405L42.9004 19.1437L42.2877 19.1497L41.1048 14.9155H41.6932L42.6153 18.5006L43.6345 14.9155H44.2532L45.2238 18.4885L46.152 14.9155H46.7465ZM50.3837 17.3541C50.3837 17.4593 50.3777 17.5705 50.3655 17.6878H47.7085C47.7287 18.0153 47.8399 18.2722 48.0421 18.4582C48.2484 18.6402 48.4971 18.7312 48.7883 18.7312C49.0269 18.7312 49.2251 18.6766 49.3828 18.5674C49.5446 18.4541 49.6578 18.3045 49.7225 18.1185H50.317C50.228 18.438 50.0501 18.6988 49.7832 18.901C49.5163 19.0992 49.1846 19.1983 48.7883 19.1983C48.4729 19.1983 48.1898 19.1275 47.939 18.986C47.6923 18.8444 47.4982 18.6442 47.3567 18.3854C47.2151 18.1225 47.1443 17.8192 47.1443 17.4754C47.1443 17.1317 47.2131 16.8304 47.3506 16.5716C47.4881 16.3127 47.6802 16.1146 47.9269 15.9771C48.1776 15.8355 48.4648 15.7647 48.7883 15.7647C49.1037 15.7647 49.3828 15.8335 49.6255 15.971C49.8681 16.1085 50.0541 16.2986 50.1836 16.5412C50.317 16.7798 50.3837 17.0508 50.3837 17.3541ZM49.8135 17.2389C49.8135 17.0286 49.767 16.8486 49.674 16.699C49.581 16.5453 49.4536 16.43 49.2918 16.3532C49.1341 16.2723 48.9582 16.2319 48.764 16.2319C48.485 16.2319 48.2464 16.3208 48.0482 16.4988C47.8541 16.6767 47.7429 16.9234 47.7146 17.2389H49.8135ZM54.1456 17.3541C54.1456 17.4593 54.1395 17.5705 54.1274 17.6878H51.4703C51.4905 18.0153 51.6018 18.2722 51.804 18.4582C52.0102 18.6402 52.2589 18.7312 52.5501 18.7312C52.7887 18.7312 52.9869 18.6766 53.1446 18.5674C53.3064 18.4541 53.4196 18.3045 53.4843 18.1185H54.0788C53.9899 18.438 53.8119 18.6988 53.545 18.901C53.2781 19.0992 52.9464 19.1983 52.5501 19.1983C52.2347 19.1983 51.9516 19.1275 51.7008 18.986C51.4541 18.8444 51.26 18.6442 51.1185 18.3854C50.9769 18.1225 50.9062 17.8192 50.9062 17.4754C50.9062 17.1317 50.9749 16.8304 51.1124 16.5716C51.2499 16.3127 51.442 16.1146 51.6887 15.9771C51.9394 15.8355 52.2266 15.7647 52.5501 15.7647C52.8656 15.7647 53.1446 15.8335 53.3873 15.971C53.6299 16.1085 53.816 16.2986 53.9454 16.5412C54.0788 16.7798 54.1456 17.0508 54.1456 17.3541ZM53.5753 17.2389C53.5753 17.0286 53.5288 16.8486 53.4358 16.699C53.3428 16.5453 53.2154 16.43 53.0536 16.3532C52.8959 16.2723 52.72 16.2319 52.5259 16.2319C52.2468 16.2319 52.0082 16.3208 51.81 16.4988C51.6159 16.6767 51.5047 16.9234 51.4764 17.2389H53.5753ZM56.7305 19.1437L55.4263 17.6756V19.1437H54.8742V14.6546H55.4263V17.2935L56.7062 15.8193H57.4767L55.9116 17.4754L57.4827 19.1437H56.7305ZM58.5483 14.6546V19.1437H57.9962V14.6546H58.5483ZM62.3524 15.8193L60.3505 20.7088H59.7803L60.4355 19.1073L59.0948 15.8193H59.7075L60.7509 18.5128L61.7822 15.8193H62.3524ZM66.7509 19.1437L65.7439 17.4148H65.0766V19.1437H64.5246V14.9155H65.8895C66.209 14.9155 66.478 14.9701 66.6963 15.0793C66.9188 15.1885 67.0846 15.3361 67.1938 15.5221C67.303 15.7081 67.3576 15.9205 67.3576 16.1591C67.3576 16.4502 67.2726 16.707 67.1028 16.9295C66.937 17.1519 66.6862 17.2995 66.3506 17.3723L67.4122 19.1437H66.7509ZM65.0766 16.9719H65.8895C66.1888 16.9719 66.4133 16.8991 66.5629 16.7536C66.7125 16.6039 66.7873 16.4058 66.7873 16.1591C66.7873 15.9083 66.7125 15.7142 66.5629 15.5767C66.4173 15.4392 66.1928 15.3704 65.8895 15.3704H65.0766V16.9719ZM71.2485 17.3541C71.2485 17.4593 71.2424 17.5705 71.2303 17.6878H68.5733C68.5935 18.0153 68.7047 18.2722 68.9069 18.4582C69.1132 18.6402 69.3619 18.7312 69.6531 18.7312C69.8917 18.7312 70.0898 18.6766 70.2475 18.5674C70.4093 18.4541 70.5226 18.3045 70.5873 18.1185H71.1818C71.0928 18.438 70.9148 18.6988 70.6479 18.901C70.381 19.0992 70.0494 19.1983 69.6531 19.1983C69.3376 19.1983 69.0545 19.1275 68.8038 18.986C68.5571 18.8444 68.363 18.6442 68.2214 18.3854C68.0799 18.1225 68.0091 17.8192 68.0091 17.4754C68.0091 17.1317 68.0778 16.8304 68.2153 16.5716C68.3528 16.3127 68.5449 16.1146 68.7916 15.9771C69.0424 15.8355 69.3295 15.7647 69.6531 15.7647C69.9685 15.7647 70.2475 15.8335 70.4902 15.971C70.7329 16.1085 70.9189 16.2986 71.0483 16.5412C71.1818 16.7798 71.2485 17.0508 71.2485 17.3541ZM70.6783 17.2389C70.6783 17.0286 70.6317 16.8486 70.5387 16.699C70.4457 16.5453 70.3183 16.43 70.1566 16.3532C69.9988 16.2723 69.8229 16.2319 69.6288 16.2319C69.3497 16.2319 69.1111 16.3208 68.913 16.4988C68.7188 16.6767 68.6076 16.9234 68.5793 17.2389H70.6783ZM72.5292 16.432C72.6384 16.242 72.8001 16.0842 73.0145 15.9589C73.2329 15.8295 73.4856 15.7647 73.7728 15.7647C74.068 15.7647 74.3349 15.8355 74.5735 15.9771C74.8162 16.1186 75.0063 16.3188 75.1438 16.5776C75.2813 16.8324 75.35 17.1297 75.35 17.4694C75.35 17.805 75.2813 18.1043 75.1438 18.3672C75.0063 18.6301 74.8162 18.8343 74.5735 18.9799C74.3349 19.1255 74.068 19.1983 73.7728 19.1983C73.4897 19.1983 73.2389 19.1356 73.0206 19.0102C72.8062 18.8808 72.6424 18.7211 72.5292 18.531V20.7209H71.9772V15.8193H72.5292V16.432ZM74.7858 17.4694C74.7858 17.2186 74.7353 17.0003 74.6342 16.8142C74.5331 16.6282 74.3956 16.4866 74.2217 16.3896C74.0518 16.2925 73.8638 16.244 73.6575 16.244C73.4553 16.244 73.2673 16.2945 73.0934 16.3956C72.9235 16.4927 72.786 16.6363 72.6808 16.8264C72.5797 17.0124 72.5292 17.2287 72.5292 17.4754C72.5292 17.7262 72.5797 17.9466 72.6808 18.1367C72.786 18.3227 72.9235 18.4663 73.0934 18.5674C73.2673 18.6644 73.4553 18.713 73.6575 18.713C73.8638 18.713 74.0518 18.6644 74.2217 18.5674C74.3956 18.4663 74.5331 18.3227 74.6342 18.1367C74.7353 17.9466 74.7858 17.7242 74.7858 17.4694ZM77.5265 19.1983C77.2151 19.1983 76.932 19.1275 76.6772 18.986C76.4265 18.8444 76.2283 18.6442 76.0827 18.3854C75.9412 18.1225 75.8704 17.8192 75.8704 17.4754C75.8704 17.1357 75.9432 16.8365 76.0888 16.5776C76.2384 16.3148 76.4406 16.1146 76.6954 15.9771C76.9502 15.8355 77.2353 15.7647 77.5508 15.7647C77.8662 15.7647 78.1513 15.8355 78.4061 15.9771C78.6609 16.1146 78.8611 16.3127 79.0067 16.5716C79.1563 16.8304 79.2311 17.1317 79.2311 17.4754C79.2311 17.8192 79.1543 18.1225 79.0006 18.3854C78.851 18.6442 78.6467 18.8444 78.3879 18.986C78.1291 19.1275 77.8419 19.1983 77.5265 19.1983ZM77.5265 18.713C77.7247 18.713 77.9107 18.6665 78.0846 18.5734C78.2585 18.4804 78.398 18.3409 78.5032 18.1549C78.6124 17.9688 78.667 17.7424 78.667 17.4754C78.667 17.2085 78.6144 16.9821 78.5092 16.796C78.4041 16.61 78.2666 16.4725 78.0967 16.3835C77.9269 16.2905 77.7429 16.244 77.5447 16.244C77.3425 16.244 77.1564 16.2905 76.9866 16.3835C76.8208 16.4725 76.6873 16.61 76.5862 16.796C76.4851 16.9821 76.4346 17.2085 76.4346 17.4754C76.4346 17.7464 76.4831 17.9749 76.5801 18.1609C76.6813 18.347 76.8147 18.4865 76.9805 18.5795C77.1463 18.6685 77.3283 18.713 77.5265 18.713ZM80.509 16.3592C80.606 16.1692 80.7435 16.0216 80.9215 15.9164C81.1035 15.8113 81.3239 15.7587 81.5827 15.7587V16.3289H81.4371C80.8184 16.3289 80.509 16.6646 80.509 17.3359V19.1437H79.9569V15.8193H80.509V16.3592ZM82.8933 16.2743V18.2337C82.8933 18.3955 82.9277 18.5108 82.9964 18.5795C83.0652 18.6442 83.1845 18.6766 83.3544 18.6766H83.7608V19.1437H83.2634C82.956 19.1437 82.7255 19.0729 82.5718 18.9314C82.4181 18.7898 82.3413 18.5573 82.3413 18.2337V16.2743H81.9106V15.8193H82.3413V14.9822H82.8933V15.8193H83.7608V16.2743H82.8933Z" fill="white"/>
<path d="M55.9088 82.7054C59.5337 82.2676 63.0369 81.12 66.2183 79.3283C69.3997 77.5366 72.1971 75.1358 74.4507 72.263C76.7042 69.3902 78.3699 66.1016 79.3526 62.5851C80.3352 59.0685 80.6157 55.3929 80.1778 51.768C79.7399 48.1431 78.5924 44.6399 76.8007 41.4585C75.0089 38.2771 72.6081 35.4797 69.7353 33.2261C66.8625 30.9725 63.574 29.3069 60.0574 28.3242C56.5409 27.3415 52.8652 27.0611 49.2403 27.499L50.1011 34.6254C52.7902 34.3006 55.5169 34.5086 58.1256 35.2375C60.7342 35.9665 63.1738 37.2021 65.3049 38.8739C67.436 40.5457 69.217 42.6208 70.5462 44.9809C71.8753 47.341 72.7266 49.9397 73.0514 52.6288C73.3762 55.3178 73.1682 58.0445 72.4393 60.6532C71.7103 63.2619 70.4746 65.7014 68.8029 67.8325C67.1311 69.9637 65.0559 71.7447 62.6959 73.0738C60.3358 74.4029 57.7371 75.2542 55.048 75.579L55.9088 82.7054Z" fill="white"/>
<path d="M52.5746 30.9653C52.5746 28.9401 50.9257 27.2735 48.9181 27.5398C44.2681 28.1567 39.8285 29.9433 36.0271 32.7586C31.2388 36.3048 27.7164 41.2953 25.979 46.9948C24.2416 52.6942 24.381 58.8011 26.3768 64.4153C28.3727 70.0295 32.1192 74.8541 37.0644 78.1779C42.0095 81.5018 47.8917 83.1491 53.8439 82.8771C59.7961 82.6051 65.5034 80.4281 70.1248 76.6671C74.7462 72.9061 78.0371 67.7599 79.5125 61.9871C80.6839 57.404 80.6618 52.6184 79.477 48.0798C78.9655 46.1202 76.7996 45.2228 74.9244 45.9876C73.0491 46.7523 72.1846 48.8919 72.6029 50.8734C73.2484 53.9308 73.1888 57.1122 72.407 60.171C71.3207 64.4211 68.8979 68.2099 65.4955 70.9788C62.0931 73.7478 57.8912 75.3505 53.5091 75.5508C49.1269 75.751 44.7963 74.5382 41.1556 72.0911C37.5148 69.644 34.7565 66.0921 33.2871 61.9587C31.8178 57.8254 31.7151 53.3294 32.9942 49.1333C34.2734 44.9372 36.8667 41.263 40.3919 38.6523C42.9291 36.7733 45.8523 35.5167 48.9271 34.9599C50.9199 34.599 52.5746 32.9905 52.5746 30.9653Z" fill="#86ACFF"/>
<path d="M42.5591 46.1579V46.6149H41.8068V48.9807H41.2407V46.6149H40.4884V46.1579H42.5591ZM43.967 49.0171C43.7514 49.0171 43.5572 48.9699 43.3847 48.8756C43.2121 48.7785 43.076 48.6423 42.9762 48.4671C42.8792 48.2919 42.8306 48.0896 42.8306 47.8605C42.8306 47.6313 42.8805 47.4291 42.9803 47.2538C43.0827 47.0786 43.2216 46.9438 43.3968 46.8494C43.5721 46.7524 43.7675 46.7038 43.9832 46.7038C44.1989 46.7038 44.3944 46.7524 44.5696 46.8494C44.7449 46.9438 44.8824 47.0786 44.9821 47.2538C45.0846 47.4291 45.1358 47.6313 45.1358 47.8605C45.1358 48.0896 45.0832 48.2919 44.9781 48.4671C44.8756 48.6423 44.7354 48.7785 44.5575 48.8756C44.3822 48.9699 44.1854 49.0171 43.967 49.0171ZM43.967 48.5237C44.0695 48.5237 44.1652 48.4995 44.2542 48.4509C44.3458 48.3997 44.4186 48.3242 44.4726 48.2244C44.5265 48.1247 44.5535 48.0034 44.5535 47.8605C44.5535 47.6475 44.4968 47.4844 44.3836 47.3711C44.2731 47.2552 44.1369 47.1972 43.9751 47.1972C43.8134 47.1972 43.6772 47.2552 43.5667 47.3711C43.4588 47.4844 43.4049 47.6475 43.4049 47.8605C43.4049 48.0735 43.4575 48.2379 43.5626 48.3539C43.6705 48.4671 43.8053 48.5237 43.967 48.5237ZM46.2103 47.2053V48.2892C46.2103 48.3646 46.2279 48.4199 46.2629 48.455C46.3007 48.4873 46.3627 48.5035 46.4489 48.5035H46.7118V48.9807H46.3559C45.8787 48.9807 45.6401 48.7488 45.6401 48.2851V47.2053H45.3732V46.7402H45.6401V46.1862H46.2103V46.7402H46.7118V47.2053H46.2103ZM46.9735 47.8524C46.9735 47.6259 47.0179 47.425 47.1069 47.2498C47.1986 47.0745 47.3213 46.9397 47.4749 46.8454C47.6313 46.751 47.8052 46.7038 47.9966 46.7038C48.1638 46.7038 48.3094 46.7375 48.4334 46.8049C48.5601 46.8723 48.6612 46.9573 48.7367 47.0597V46.7402H49.307V48.9807H48.7367V48.6531C48.6639 48.7583 48.5628 48.8459 48.4334 48.916C48.3067 48.9834 48.1598 49.0171 47.9926 49.0171C47.8039 49.0171 47.6313 48.9686 47.4749 48.8715C47.3213 48.7745 47.1986 48.6383 47.1069 48.4631C47.0179 48.2851 46.9735 48.0816 46.9735 47.8524ZM48.7367 47.8605C48.7367 47.723 48.7098 47.6057 48.6558 47.5086C48.6019 47.4089 48.5291 47.3334 48.4375 47.2821C48.3458 47.2282 48.2474 47.2013 48.1422 47.2013C48.0371 47.2013 47.94 47.2269 47.8511 47.2781C47.7621 47.3293 47.6893 47.4048 47.6327 47.5046C47.5787 47.6016 47.5518 47.7176 47.5518 47.8524C47.5518 47.9872 47.5787 48.1058 47.6327 48.2083C47.6893 48.308 47.7621 48.3849 47.8511 48.4388C47.9427 48.4927 48.0398 48.5197 48.1422 48.5197C48.2474 48.5197 48.3458 48.4941 48.4375 48.4428C48.5291 48.3889 48.6019 48.3134 48.6558 48.2164C48.7098 48.1166 48.7367 47.998 48.7367 47.8605ZM50.4261 45.988V48.9807H49.8599V45.988H50.4261ZM53.8702 46.1579V46.6149H53.118V48.9807H52.5518V46.6149H51.7996V46.1579H53.8702ZM54.1377 47.8524C54.1377 47.6259 54.1822 47.425 54.2712 47.2498C54.3628 47.0745 54.4855 46.9397 54.6392 46.8454C54.7956 46.751 54.9695 46.7038 55.1609 46.7038C55.328 46.7038 55.4736 46.7375 55.5977 46.8049C55.7244 46.8723 55.8255 46.9573 55.901 47.0597V46.7402H56.4712V48.9807H55.901V48.6531C55.8282 48.7583 55.7271 48.8459 55.5977 48.916C55.4709 48.9834 55.324 49.0171 55.1568 49.0171C54.9681 49.0171 54.7956 48.9686 54.6392 48.8715C54.4855 48.7745 54.3628 48.6383 54.2712 48.4631C54.1822 48.2851 54.1377 48.0816 54.1377 47.8524ZM55.901 47.8605C55.901 47.723 55.874 47.6057 55.8201 47.5086C55.7662 47.4089 55.6934 47.3334 55.6017 47.2821C55.51 47.2282 55.4116 47.2013 55.3065 47.2013C55.2013 47.2013 55.1043 47.2269 55.0153 47.2781C54.9263 47.3293 54.8535 47.4048 54.7969 47.5046C54.743 47.6016 54.716 47.7176 54.716 47.8524C54.716 47.9872 54.743 48.1058 54.7969 48.2083C54.8535 48.308 54.9263 48.3849 55.0153 48.4388C55.107 48.4927 55.204 48.5197 55.3065 48.5197C55.4116 48.5197 55.51 48.4941 55.6017 48.4428C55.6934 48.3889 55.7662 48.3134 55.8201 48.2164C55.874 48.1166 55.901 47.998 55.901 47.8605ZM57.8816 49.0171C57.6982 49.0171 57.5338 48.9848 57.3882 48.92C57.2426 48.8526 57.1266 48.7623 57.0404 48.6491C56.9568 48.5359 56.9109 48.4105 56.9029 48.273H57.4731C57.4839 48.3593 57.5257 48.4307 57.5985 48.4873C57.674 48.5439 57.767 48.5722 57.8775 48.5722C57.9854 48.5722 58.0689 48.5507 58.1282 48.5075C58.1903 48.4644 58.2213 48.4091 58.2213 48.3417C58.2213 48.2689 58.1835 48.215 58.108 48.18C58.0352 48.1422 57.918 48.1018 57.7562 48.0586C57.589 48.0182 57.4515 47.9764 57.3437 47.9333C57.2385 47.8901 57.1469 47.8241 57.0687 47.7351C56.9932 47.6461 56.9554 47.5261 56.9554 47.3752C56.9554 47.2511 56.9905 47.1379 57.0606 47.0355C57.1334 46.933 57.2358 46.8521 57.3679 46.7928C57.5027 46.7335 57.6605 46.7038 57.8411 46.7038C58.108 46.7038 58.321 46.7712 58.4801 46.906C58.6392 47.0381 58.7268 47.2174 58.743 47.4439H58.201C58.193 47.3549 58.1552 47.2848 58.0878 47.2336C58.0231 47.1797 57.9355 47.1527 57.8249 47.1527C57.7225 47.1527 57.6429 47.1716 57.5863 47.2094C57.5324 47.2471 57.5054 47.2997 57.5054 47.3671C57.5054 47.4426 57.5432 47.5005 57.6187 47.541C57.6942 47.5787 57.8115 47.6178 57.9705 47.6583C58.1323 47.6987 58.2658 47.7405 58.3709 47.7836C58.476 47.8268 58.5664 47.8942 58.6419 47.9858C58.72 48.0748 58.7605 48.1934 58.7632 48.3417C58.7632 48.4711 58.7268 48.5871 58.654 48.6895C58.5839 48.792 58.4814 48.8729 58.3466 48.9322C58.2145 48.9888 58.0595 49.0171 57.8816 49.0171ZM60.5545 48.9807L59.7941 48.0263V48.9807H59.228V45.988H59.7941V47.6906L60.5464 46.7402H61.2824L60.2956 47.8645L61.2905 48.9807H60.5545ZM62.4471 49.0171C62.2637 49.0171 62.0993 48.9848 61.9537 48.92C61.8081 48.8526 61.6922 48.7623 61.6059 48.6491C61.5223 48.5359 61.4765 48.4105 61.4684 48.273H62.0386C62.0494 48.3593 62.0912 48.4307 62.164 48.4873C62.2395 48.5439 62.3325 48.5722 62.443 48.5722C62.5509 48.5722 62.6345 48.5507 62.6938 48.5075C62.7558 48.4644 62.7868 48.4091 62.7868 48.3417C62.7868 48.2689 62.749 48.215 62.6735 48.18C62.6008 48.1422 62.4835 48.1018 62.3217 48.0586C62.1545 48.0182 62.017 47.9764 61.9092 47.9333C61.804 47.8901 61.7124 47.8241 61.6342 47.7351C61.5587 47.6461 61.521 47.5261 61.521 47.3752C61.521 47.2511 61.556 47.1379 61.6261 47.0355C61.6989 46.933 61.8013 46.8521 61.9335 46.7928C62.0683 46.7335 62.226 46.7038 62.4066 46.7038C62.6735 46.7038 62.8865 46.7712 63.0456 46.906C63.2047 47.0381 63.2923 47.2174 63.3085 47.4439H62.7666C62.7585 47.3549 62.7207 47.2848 62.6533 47.2336C62.5886 47.1797 62.501 47.1527 62.3905 47.1527C62.288 47.1527 62.2085 47.1716 62.1518 47.2094C62.0979 47.2471 62.071 47.2997 62.071 47.3671C62.071 47.4426 62.1087 47.5005 62.1842 47.541C62.2597 47.5787 62.377 47.6178 62.536 47.6583C62.6978 47.6987 62.8313 47.7405 62.9364 47.7836C63.0416 47.8268 63.1319 47.8942 63.2074 47.9858C63.2856 48.0748 63.326 48.1934 63.3287 48.3417C63.3287 48.4711 63.2923 48.5871 63.2195 48.6895C63.1494 48.792 63.047 48.8729 62.9122 48.9322C62.78 48.9888 62.625 49.0171 62.4471 49.0171ZM44.8887 55.4428H43.7644L43.5784 55.9807H42.9839L43.999 53.1538H44.6582L45.6733 55.9807H45.0747L44.8887 55.4428ZM44.735 54.9899L44.3266 53.809L43.9181 54.9899H44.735ZM46.9101 56.0171C46.7267 56.0171 46.5623 55.9848 46.4167 55.92C46.2711 55.8526 46.1552 55.7623 46.0689 55.6491C45.9853 55.5359 45.9395 55.4105 45.9314 55.273H46.5016C46.5124 55.3593 46.5542 55.4307 46.627 55.4873C46.7025 55.5439 46.7955 55.5722 46.906 55.5722C47.0139 55.5722 47.0975 55.5507 47.1568 55.5075C47.2188 55.4644 47.2498 55.4091 47.2498 55.3417C47.2498 55.2689 47.212 55.215 47.1366 55.18C47.0638 55.1422 46.9465 55.1018 46.7847 55.0586C46.6176 55.0182 46.48 54.9764 46.3722 54.9333C46.2671 54.8901 46.1754 54.8241 46.0972 54.7351C46.0217 54.6461 45.984 54.5261 45.984 54.3752C45.984 54.2511 46.019 54.1379 46.0891 54.0355C46.1619 53.933 46.2644 53.8521 46.3965 53.7928C46.5313 53.7335 46.689 53.7038 46.8696 53.7038C47.1366 53.7038 47.3496 53.7712 47.5086 53.906C47.6677 54.0381 47.7553 54.2174 47.7715 54.4439H47.2296C47.2215 54.3549 47.1837 54.2848 47.1163 54.2336C47.0516 54.1797 46.964 54.1527 46.8535 54.1527C46.751 54.1527 46.6715 54.1716 46.6149 54.2094C46.5609 54.2471 46.534 54.2997 46.534 54.3671C46.534 54.4426 46.5717 54.5005 46.6472 54.541C46.7227 54.5787 46.84 54.6178 46.9991 54.6583C47.1608 54.6987 47.2943 54.7405 47.3994 54.7836C47.5046 54.8268 47.5949 54.8942 47.6704 54.9858C47.7486 55.0748 47.789 55.1934 47.7917 55.3417C47.7917 55.4711 47.7553 55.5871 47.6825 55.6895C47.6124 55.792 47.51 55.8729 47.3752 55.9322C47.2431 55.9888 47.088 56.0171 46.9101 56.0171ZM49.1139 56.0171C48.9305 56.0171 48.7661 55.9848 48.6205 55.92C48.4749 55.8526 48.3589 55.7623 48.2727 55.6491C48.1891 55.5359 48.1432 55.4105 48.1352 55.273H48.7054C48.7162 55.3593 48.758 55.4307 48.8308 55.4873C48.9063 55.5439 48.9993 55.5722 49.1098 55.5722C49.2177 55.5722 49.3012 55.5507 49.3606 55.5075C49.4226 55.4644 49.4536 55.4091 49.4536 55.3417C49.4536 55.2689 49.4158 55.215 49.3403 55.18C49.2675 55.1422 49.1503 55.1018 48.9885 55.0586C48.8213 55.0182 48.6838 54.9764 48.576 54.9333C48.4708 54.8901 48.3792 54.8241 48.301 54.7351C48.2255 54.6461 48.1877 54.5261 48.1877 54.3752C48.1877 54.2511 48.2228 54.1379 48.2929 54.0355C48.3657 53.933 48.4681 53.8521 48.6002 53.7928C48.735 53.7335 48.8928 53.7038 49.0734 53.7038C49.3403 53.7038 49.5533 53.7712 49.7124 53.906C49.8715 54.0381 49.9591 54.2174 49.9753 54.4439H49.4333C49.4253 54.3549 49.3875 54.2848 49.3201 54.2336C49.2554 54.1797 49.1678 54.1527 49.0572 54.1527C48.9548 54.1527 48.8752 54.1716 48.8186 54.2094C48.7647 54.2471 48.7377 54.2997 48.7377 54.3671C48.7377 54.4426 48.7755 54.5005 48.851 54.541C48.9265 54.5787 49.0438 54.6178 49.2028 54.6583C49.3646 54.6987 49.4981 54.7405 49.6032 54.7836C49.7084 54.8268 49.7987 54.8942 49.8742 54.9858C49.9524 55.0748 49.9928 55.1934 49.9955 55.3417C49.9955 55.4711 49.9591 55.5871 49.8863 55.6895C49.8162 55.792 49.7137 55.8729 49.5789 55.9322C49.4468 55.9888 49.2918 56.0171 49.1139 56.0171ZM50.7474 53.4733C50.6476 53.4733 50.5641 53.4423 50.4967 53.3803C50.4319 53.3156 50.3996 53.236 50.3996 53.1417C50.3996 53.0473 50.4319 52.9691 50.4967 52.9071C50.5641 52.8424 50.6476 52.8101 50.7474 52.8101C50.8472 52.8101 50.9294 52.8424 50.9941 52.9071C51.0615 52.9691 51.0952 53.0473 51.0952 53.1417C51.0952 53.236 51.0615 53.3156 50.9941 53.3803C50.9294 53.4423 50.8472 53.4733 50.7474 53.4733ZM51.0264 53.7402V55.9807H50.4603V53.7402H51.0264ZM52.4634 53.7038C52.6306 53.7038 52.7775 53.7375 52.9042 53.8049C53.031 53.8696 53.1307 53.9546 53.2035 54.0597V53.7402H53.7738V55.9969C53.7738 56.2045 53.732 56.3892 53.6484 56.5509C53.5648 56.7154 53.4394 56.8448 53.2723 56.9392C53.1051 57.0362 52.9029 57.0848 52.6656 57.0848C52.3475 57.0848 52.086 57.0106 51.8811 56.8623C51.6789 56.7141 51.5643 56.5119 51.5373 56.2557H52.0995C52.1291 56.3582 52.1925 56.4391 52.2895 56.4984C52.3893 56.5604 52.5093 56.5914 52.6495 56.5914C52.8139 56.5914 52.9474 56.5415 53.0498 56.4418C53.1523 56.3447 53.2035 56.1964 53.2035 55.9969V55.6491C53.1307 55.7542 53.0296 55.8419 52.9002 55.912C52.7735 55.9821 52.6279 56.0171 52.4634 56.0171C52.2747 56.0171 52.1021 55.9686 51.9458 55.8715C51.7894 55.7745 51.6654 55.6383 51.5737 55.4631C51.4847 55.2851 51.4402 55.0816 51.4402 54.8524C51.4402 54.6259 51.4847 54.425 51.5737 54.2498C51.6654 54.0745 51.7881 53.9397 51.9417 53.8454C52.0981 53.751 52.272 53.7038 52.4634 53.7038ZM53.2035 54.8605C53.2035 54.723 53.1766 54.6057 53.1226 54.5086C53.0687 54.4089 52.9959 54.3334 52.9042 54.2821C52.8126 54.2282 52.7142 54.2013 52.609 54.2013C52.5039 54.2013 52.4068 54.2269 52.3178 54.2781C52.2289 54.3293 52.1561 54.4048 52.0995 54.5046C52.0455 54.6016 52.0186 54.7176 52.0186 54.8524C52.0186 54.9872 52.0455 55.1058 52.0995 55.2083C52.1561 55.308 52.2289 55.3849 52.3178 55.4388C52.4095 55.4927 52.5066 55.5197 52.609 55.5197C52.7142 55.5197 52.8126 55.4941 52.9042 55.4428C52.9959 55.3889 53.0687 55.3134 53.1226 55.2164C53.1766 55.1166 53.2035 54.998 53.2035 54.8605ZM55.5683 53.7079C55.8352 53.7079 56.0509 53.7928 56.2154 53.9627C56.3798 54.1298 56.4621 54.3644 56.4621 54.6663V55.9807H55.8959V54.7432C55.8959 54.5652 55.8514 54.4291 55.7624 54.3347C55.6735 54.2377 55.5521 54.1891 55.3984 54.1891C55.2421 54.1891 55.118 54.2377 55.0264 54.3347C54.9374 54.4291 54.8929 54.5652 54.8929 54.7432V55.9807H54.3267V53.7402H54.8929V54.0193C54.9684 53.9222 55.0641 53.8467 55.1801 53.7928C55.2987 53.7362 55.4281 53.7079 55.5683 53.7079ZM59.0832 54.8119C59.0832 54.8928 59.0779 54.9656 59.0671 55.0303H57.4292C57.4427 55.1921 57.4993 55.3188 57.599 55.4105C57.6988 55.5021 57.8215 55.548 57.967 55.548C58.1773 55.548 58.327 55.4577 58.416 55.277H59.0266C58.9619 55.4927 58.8379 55.6707 58.6546 55.8109C58.4712 55.9484 58.2461 56.0171 57.9792 56.0171C57.7635 56.0171 57.5694 55.9699 57.3968 55.8756C57.227 55.7785 57.0935 55.6423 56.9964 55.4671C56.9021 55.2919 56.8549 55.0896 56.8549 54.8605C56.8549 54.6286 56.9021 54.425 56.9964 54.2498C57.0908 54.0745 57.2229 53.9397 57.3928 53.8454C57.5626 53.751 57.7581 53.7038 57.9792 53.7038C58.1922 53.7038 58.3823 53.7497 58.5494 53.8413C58.7193 53.933 58.85 54.0638 58.9417 54.2336C59.0361 54.4008 59.0832 54.5936 59.0832 54.8119ZM58.4968 54.6502C58.4941 54.5046 58.4416 54.3886 58.3391 54.3024C58.2367 54.2134 58.1113 54.1689 57.963 54.1689C57.8228 54.1689 57.7042 54.212 57.6071 54.2983C57.5128 54.3819 57.4548 54.4992 57.4332 54.6502H58.4968ZM59.3509 54.8524C59.3509 54.6259 59.3954 54.425 59.4844 54.2498C59.5761 54.0745 59.7001 53.9397 59.8564 53.8454C60.0128 53.751 60.1867 53.7038 60.3781 53.7038C60.5237 53.7038 60.6626 53.7362 60.7947 53.8009C60.9268 53.8629 61.032 53.9465 61.1101 54.0516V52.988H61.6844V55.9807H61.1101V55.6491C61.0401 55.7596 60.9416 55.8486 60.8149 55.916C60.6882 55.9834 60.5413 56.0171 60.3741 56.0171C60.1854 56.0171 60.0128 55.9686 59.8564 55.8715C59.7001 55.7745 59.5761 55.6383 59.4844 55.4631C59.3954 55.2851 59.3509 55.0816 59.3509 54.8524ZM61.1142 54.8605C61.1142 54.723 61.0872 54.6057 61.0333 54.5086C60.9794 54.4089 60.9066 54.3334 60.8149 54.2821C60.7233 54.2282 60.6248 54.2013 60.5197 54.2013C60.4145 54.2013 60.3175 54.2269 60.2285 54.2781C60.1395 54.3293 60.0667 54.4048 60.0101 54.5046C59.9562 54.6016 59.9292 54.7176 59.9292 54.8524C59.9292 54.9872 59.9562 55.1058 60.0101 55.2083C60.0667 55.308 60.1395 55.3849 60.2285 55.4388C60.3202 55.4927 60.4172 55.5197 60.5197 55.5197C60.6248 55.5197 60.7233 55.4941 60.8149 55.4428C60.9066 55.3889 60.9794 55.3134 61.0333 55.2164C61.0872 55.1166 61.1142 54.998 61.1142 54.8605Z" fill="white"/>
<path d="M49.6778 61.2598V60.456H51.0781V64.1464H50.1782V61.2598H49.6778ZM51.6694 62.2506C51.6694 61.671 51.7806 61.2143 52.003 60.8807C52.2288 60.547 52.5911 60.3802 53.0899 60.3802C53.5887 60.3802 53.9493 60.547 54.1717 60.8807C54.3976 61.2143 54.5105 61.671 54.5105 62.2506C54.5105 62.8371 54.3976 63.2971 54.1717 63.6307C53.9493 63.9644 53.5887 64.1312 53.0899 64.1312C52.5911 64.1312 52.2288 63.9644 52.003 63.6307C51.7806 63.2971 51.6694 62.8371 51.6694 62.2506ZM53.6612 62.2506C53.6612 61.9103 53.6241 61.6491 53.55 61.4671C53.4758 61.2817 53.3225 61.189 53.0899 61.189C52.8574 61.189 52.704 61.2817 52.6299 61.4671C52.5558 61.6491 52.5187 61.9103 52.5187 62.2506C52.5187 62.4798 52.5322 62.6702 52.5591 62.8219C52.5861 62.9702 52.64 63.0915 52.7209 63.1859C52.8051 63.2769 52.9282 63.3224 53.0899 63.3224C53.2517 63.3224 53.373 63.2769 53.4539 63.1859C53.5382 63.0915 53.5938 62.9702 53.6207 62.8219C53.6477 62.6702 53.6612 62.4798 53.6612 62.2506Z" fill="white"/>
<path d="M141.302 37.7531C141.302 37.3406 141.395 36.9705 141.581 36.643C141.767 36.3113 142.02 36.0525 142.339 35.8665C142.663 35.6804 143.021 35.5874 143.413 35.5874C143.874 35.5874 144.277 35.6986 144.62 35.9211C144.964 36.1435 145.215 36.459 145.373 36.8674H144.711C144.594 36.6126 144.424 36.4165 144.202 36.279C143.983 36.1415 143.721 36.0727 143.413 36.0727C143.118 36.0727 142.853 36.1415 142.619 36.279C142.384 36.4165 142.2 36.6126 142.066 36.8674C141.933 37.1182 141.866 37.4134 141.866 37.7531C141.866 38.0888 141.933 38.384 142.066 38.6388C142.2 38.8895 142.384 39.0836 142.619 39.2211C142.853 39.3586 143.118 39.4274 143.413 39.4274C143.721 39.4274 143.983 39.3607 144.202 39.2272C144.424 39.0897 144.594 38.8936 144.711 38.6388H145.373C145.215 39.0432 144.964 39.3566 144.62 39.5791C144.277 39.7974 143.874 39.9066 143.413 39.9066C143.021 39.9066 142.663 39.8156 142.339 39.6337C142.02 39.4476 141.767 39.1908 141.581 38.8632C141.395 38.5357 141.302 38.1656 141.302 37.7531ZM147.644 39.9248C147.333 39.9248 147.05 39.8541 146.795 39.7125C146.544 39.571 146.346 39.3708 146.2 39.112C146.059 38.8491 145.988 38.5458 145.988 38.202C145.988 37.8623 146.061 37.563 146.207 37.3042C146.356 37.0413 146.558 36.8411 146.813 36.7036C147.068 36.5621 147.353 36.4913 147.668 36.4913C147.984 36.4913 148.269 36.5621 148.524 36.7036C148.779 36.8411 148.979 37.0393 149.124 37.2981C149.274 37.557 149.349 37.8583 149.349 38.202C149.349 38.5458 149.272 38.8491 149.118 39.112C148.969 39.3708 148.764 39.571 148.506 39.7125C148.247 39.8541 147.96 39.9248 147.644 39.9248ZM147.644 39.4395C147.842 39.4395 148.028 39.393 148.202 39.3C148.376 39.207 148.516 39.0675 148.621 38.8814C148.73 38.6954 148.785 38.4689 148.785 38.202C148.785 37.9351 148.732 37.7086 148.627 37.5226C148.522 37.3365 148.384 37.199 148.214 37.1101C148.045 37.0171 147.861 36.9705 147.662 36.9705C147.46 36.9705 147.274 37.0171 147.104 37.1101C146.939 37.199 146.805 37.3365 146.704 37.5226C146.603 37.7086 146.552 37.9351 146.552 38.202C146.552 38.473 146.601 38.7015 146.698 38.8875C146.799 39.0735 146.932 39.2131 147.098 39.3061C147.264 39.395 147.446 39.4395 147.644 39.4395ZM154.072 36.4852C154.331 36.4852 154.562 36.5398 154.764 36.649C154.966 36.7542 155.126 36.9139 155.243 37.1283C155.36 37.3426 155.419 37.6035 155.419 37.9108V39.8702H154.873V37.9897C154.873 37.6581 154.79 37.4053 154.624 37.2314C154.463 37.0535 154.242 36.9645 153.963 36.9645C153.676 36.9645 153.448 37.0575 153.278 37.2435C153.108 37.4255 153.023 37.6904 153.023 38.0382V39.8702H152.477V37.9897C152.477 37.6581 152.394 37.4053 152.228 37.2314C152.066 37.0535 151.846 36.9645 151.567 36.9645C151.28 36.9645 151.051 37.0575 150.881 37.2435C150.712 37.4255 150.627 37.6904 150.627 38.0382V39.8702H150.075V36.5459H150.627V37.0251C150.736 36.8512 150.881 36.7178 151.063 36.6248C151.25 36.5318 151.454 36.4852 151.676 36.4852C151.955 36.4852 152.202 36.5479 152.416 36.6733C152.631 36.7987 152.79 36.9827 152.896 37.2253C152.989 36.9908 153.142 36.8088 153.357 36.6794C153.571 36.55 153.809 36.4852 154.072 36.4852ZM156.877 37.1586C156.986 36.9685 157.148 36.8108 157.362 36.6854C157.58 36.556 157.833 36.4913 158.12 36.4913C158.415 36.4913 158.682 36.5621 158.921 36.7036C159.164 36.8452 159.354 37.0454 159.491 37.3042C159.629 37.559 159.697 37.8562 159.697 38.1959C159.697 38.5316 159.629 38.8309 159.491 39.0938C159.354 39.3566 159.164 39.5609 158.921 39.7064C158.682 39.852 158.415 39.9248 158.12 39.9248C157.837 39.9248 157.586 39.8622 157.368 39.7368C157.154 39.6074 156.99 39.4476 156.877 39.2575V41.4475H156.325V36.5459H156.877V37.1586ZM159.133 38.1959C159.133 37.9452 159.083 37.7268 158.982 37.5408C158.881 37.3547 158.743 37.2132 158.569 37.1161C158.399 37.0191 158.211 36.9705 158.005 36.9705C157.803 36.9705 157.615 37.0211 157.441 37.1222C157.271 37.2193 157.133 37.3628 157.028 37.5529C156.927 37.7389 156.877 37.9553 156.877 38.202C156.877 38.4527 156.927 38.6732 157.028 38.8632C157.133 39.0493 157.271 39.1928 157.441 39.2939C157.615 39.391 157.803 39.4395 158.005 39.4395C158.211 39.4395 158.399 39.391 158.569 39.2939C158.743 39.1928 158.881 39.0493 158.982 38.8632C159.083 38.6732 159.133 38.4507 159.133 38.1959ZM160.976 35.3812V39.8702H160.424V35.3812H160.976ZM164.95 38.0807C164.95 38.1858 164.944 38.297 164.932 38.4143H162.275C162.295 38.7419 162.406 38.9987 162.609 39.1847C162.815 39.3667 163.064 39.4577 163.355 39.4577C163.593 39.4577 163.791 39.4031 163.949 39.2939C164.111 39.1807 164.224 39.0311 164.289 38.845H164.883C164.794 39.1645 164.616 39.4254 164.35 39.6276C164.083 39.8258 163.751 39.9248 163.355 39.9248C163.039 39.9248 162.756 39.8541 162.505 39.7125C162.259 39.571 162.065 39.3708 161.923 39.112C161.782 38.8491 161.711 38.5458 161.711 38.202C161.711 37.8583 161.779 37.557 161.917 37.2981C162.054 37.0393 162.247 36.8411 162.493 36.7036C162.744 36.5621 163.031 36.4913 163.355 36.4913C163.67 36.4913 163.949 36.5601 164.192 36.6976C164.435 36.8351 164.621 37.0251 164.75 37.2678C164.883 37.5064 164.95 37.7774 164.95 38.0807ZM164.38 37.9654C164.38 37.7551 164.333 37.5752 164.24 37.4255C164.147 37.2718 164.02 37.1566 163.858 37.0797C163.7 36.9989 163.525 36.9584 163.33 36.9584C163.051 36.9584 162.813 37.0474 162.615 37.2253C162.42 37.4033 162.309 37.65 162.281 37.9654H164.38ZM166.352 37.0009V38.9603C166.352 39.1221 166.387 39.2373 166.455 39.3061C166.524 39.3708 166.643 39.4031 166.813 39.4031H167.22V39.8702H166.722C166.415 39.8702 166.184 39.7995 166.031 39.6579C165.877 39.5164 165.8 39.2838 165.8 38.9603V37.0009H165.369V36.5459H165.8V35.7088H166.352V36.5459H167.22V37.0009H166.352ZM170.922 38.0807C170.922 38.1858 170.916 38.297 170.903 38.4143H168.246C168.267 38.7419 168.378 38.9987 168.58 39.1847C168.786 39.3667 169.035 39.4577 169.326 39.4577C169.565 39.4577 169.763 39.4031 169.921 39.2939C170.082 39.1807 170.196 39.0311 170.26 38.845H170.855C170.766 39.1645 170.588 39.4254 170.321 39.6276C170.054 39.8258 169.723 39.9248 169.326 39.9248C169.011 39.9248 168.728 39.8541 168.477 39.7125C168.23 39.571 168.036 39.3708 167.895 39.112C167.753 38.8491 167.682 38.5458 167.682 38.202C167.682 37.8583 167.751 37.557 167.888 37.2981C168.026 37.0393 168.218 36.8411 168.465 36.7036C168.716 36.5621 169.003 36.4913 169.326 36.4913C169.642 36.4913 169.921 36.5601 170.163 36.6976C170.406 36.8351 170.592 37.0251 170.721 37.2678C170.855 37.5064 170.922 37.7774 170.922 38.0807ZM170.351 37.9654C170.351 37.7551 170.305 37.5752 170.212 37.4255C170.119 37.2718 169.991 37.1566 169.83 37.0797C169.672 36.9989 169.496 36.9584 169.302 36.9584C169.023 36.9584 168.784 37.0474 168.586 37.2253C168.392 37.4033 168.281 37.65 168.252 37.9654H170.351ZM171.444 38.1959C171.444 37.8562 171.513 37.559 171.65 37.3042C171.788 37.0454 171.976 36.8452 172.214 36.7036C172.457 36.5621 172.728 36.4913 173.027 36.4913C173.286 36.4913 173.527 36.552 173.749 36.6733C173.972 36.7906 174.142 36.9463 174.259 37.1404V35.3812H174.817V39.8702H174.259V39.2454C174.15 39.4436 173.988 39.6074 173.774 39.7368C173.559 39.8622 173.308 39.9248 173.021 39.9248C172.726 39.9248 172.457 39.852 172.214 39.7064C171.976 39.5609 171.788 39.3566 171.65 39.0938C171.513 38.8309 171.444 38.5316 171.444 38.1959ZM174.259 38.202C174.259 37.9513 174.208 37.7329 174.107 37.5468C174.006 37.3608 173.869 37.2193 173.695 37.1222C173.525 37.0211 173.337 36.9705 173.13 36.9705C172.924 36.9705 172.736 37.0191 172.566 37.1161C172.396 37.2132 172.261 37.3547 172.16 37.5408C172.059 37.7268 172.008 37.9452 172.008 38.1959C172.008 38.4507 172.059 38.6732 172.16 38.8632C172.261 39.0493 172.396 39.1928 172.566 39.2939C172.736 39.391 172.924 39.4395 173.13 39.4395C173.337 39.4395 173.525 39.391 173.695 39.2939C173.869 39.1928 174.006 39.0493 174.107 38.8632C174.208 38.6732 174.259 38.4527 174.259 38.202Z" fill="white"/>
<path d="M141.875 44.4715C141.559 44.303 141.4 44.0384 141.4 43.6778C141.4 43.4958 141.447 43.3307 141.542 43.1824C141.636 43.0307 141.779 42.9111 141.971 42.8235C142.164 42.7325 142.399 42.687 142.679 42.687C142.959 42.687 143.193 42.7325 143.382 42.8235C143.574 42.9111 143.717 43.0307 143.812 43.1824C143.906 43.3307 143.953 43.4958 143.953 43.6778C143.953 43.8598 143.909 44.0182 143.822 44.153C143.737 44.2878 143.623 44.394 143.478 44.4715C143.66 44.5591 143.8 44.6804 143.898 44.8354C143.995 44.9871 144.044 45.1657 144.044 45.3713C144.044 45.6106 143.983 45.8178 143.862 45.9931C143.741 46.165 143.576 46.2964 143.367 46.3874C143.161 46.4784 142.932 46.5239 142.679 46.5239C142.426 46.5239 142.196 46.4784 141.987 46.3874C141.781 46.2964 141.618 46.165 141.496 45.9931C141.375 45.8178 141.314 45.6106 141.314 45.3713C141.314 45.1624 141.363 44.982 141.461 44.8304C141.559 44.6754 141.697 44.5557 141.875 44.4715ZM143.114 43.8092C143.114 43.6711 143.074 43.5649 142.993 43.4907C142.915 43.4132 142.811 43.3745 142.679 43.3745C142.548 43.3745 142.442 43.4132 142.361 43.4907C142.283 43.5683 142.244 43.6761 142.244 43.8143C142.244 43.9457 142.285 44.0502 142.366 44.1277C142.447 44.2019 142.551 44.2389 142.679 44.2389C142.807 44.2389 142.912 44.2002 142.993 44.1227C143.074 44.0451 143.114 43.9407 143.114 43.8092ZM142.679 44.8456C142.521 44.8456 142.393 44.8894 142.295 44.977C142.197 45.0612 142.148 45.1792 142.148 45.3309C142.148 45.4724 142.196 45.5887 142.29 45.6797C142.388 45.7707 142.517 45.8162 142.679 45.8162C142.841 45.8162 142.967 45.7707 143.058 45.6797C143.153 45.5887 143.2 45.4724 143.2 45.3309C143.2 45.1826 143.151 45.0646 143.053 44.977C142.959 44.8894 142.834 44.8456 142.679 44.8456ZM146.559 41.6506L145.204 47.3985H144.37L145.725 41.6506H146.559ZM146.746 43.5666V42.7628H148.147V46.4531H147.247V43.5666H146.746ZM148.738 44.5574C148.738 43.9777 148.849 43.5211 149.072 43.1874C149.298 42.8538 149.66 42.687 150.159 42.687C150.657 42.687 151.018 42.8538 151.24 43.1874C151.466 43.5211 151.579 43.9777 151.579 44.5574C151.579 45.1438 151.466 45.6038 151.24 45.9375C151.018 46.2711 150.657 46.438 150.159 46.438C149.66 46.438 149.298 46.2711 149.072 45.9375C148.849 45.6038 148.738 45.1438 148.738 44.5574ZM150.73 44.5574C150.73 44.217 150.693 43.9558 150.619 43.7738C150.545 43.5885 150.391 43.4958 150.159 43.4958C149.926 43.4958 149.773 43.5885 149.699 43.7738C149.624 43.9558 149.587 44.217 149.587 44.5574C149.587 44.7866 149.601 44.977 149.628 45.1286C149.655 45.2769 149.709 45.3983 149.79 45.4926C149.874 45.5836 149.997 45.6291 150.159 45.6291C150.32 45.6291 150.442 45.5836 150.523 45.4926C150.607 45.3983 150.662 45.2769 150.689 45.1286C150.716 44.977 150.73 44.7866 150.73 44.5574Z" fill="white"/>
<circle cx="2.52762" cy="2.52762" r="2.52762" transform="matrix(1 0 0 -1 133.964 39.9365)" fill="#86ACFF"/>
<path d="M144.335 57.5176C144.335 57.8695 144.214 58.1627 143.971 58.3972C143.733 58.6277 143.367 58.743 142.873 58.743H142.06V60.5083H141.508V56.2801H142.873C143.351 56.2801 143.712 56.3954 143.959 56.6259C144.21 56.8564 144.335 57.1536 144.335 57.5176ZM142.873 58.288C143.181 58.288 143.407 58.2213 143.553 58.0878C143.698 57.9544 143.771 57.7643 143.771 57.5176C143.771 56.9959 143.472 56.7351 142.873 56.7351H142.06V58.288H142.873ZM148.055 58.7187C148.055 58.8239 148.048 58.9351 148.036 59.0524H145.379C145.4 59.38 145.511 59.6368 145.713 59.8228C145.919 60.0048 146.168 60.0958 146.459 60.0958C146.698 60.0958 146.896 60.0412 147.054 59.932C147.215 59.8188 147.329 59.6691 147.393 59.4831H147.988C147.899 59.8026 147.721 60.0634 147.454 60.2656C147.187 60.4638 146.855 60.5629 146.459 60.5629C146.144 60.5629 145.861 60.4921 145.61 60.3506C145.363 60.209 145.169 60.0088 145.027 59.75C144.886 59.4871 144.815 59.1838 144.815 58.8401C144.815 58.4963 144.884 58.195 145.021 57.9362C145.159 57.6774 145.351 57.4792 145.598 57.3417C145.848 57.2001 146.136 57.1294 146.459 57.1294C146.775 57.1294 147.054 57.1981 147.296 57.3356C147.539 57.4731 147.725 57.6632 147.854 57.9059C147.988 58.1445 148.055 58.4154 148.055 58.7187ZM147.484 58.6035C147.484 58.3932 147.438 58.2132 147.345 58.0636C147.252 57.9099 147.124 57.7946 146.963 57.7178C146.805 57.6369 146.629 57.5965 146.435 57.5965C146.156 57.5965 145.917 57.6854 145.719 57.8634C145.525 58.0413 145.414 58.288 145.385 58.6035H147.484ZM150.403 57.1233C150.807 57.1233 151.135 57.2467 151.386 57.4934C151.636 57.736 151.762 58.0878 151.762 58.5489V60.5083H151.216V58.6277C151.216 58.2961 151.133 58.0434 150.967 57.8695C150.801 57.6915 150.575 57.6025 150.288 57.6025C149.996 57.6025 149.764 57.6935 149.59 57.8755C149.42 58.0575 149.335 58.3224 149.335 58.6702V60.5083H148.783V57.184H149.335V57.6571C149.444 57.4873 149.592 57.3558 149.778 57.2628C149.968 57.1698 150.176 57.1233 150.403 57.1233ZM152.457 58.834C152.457 58.4943 152.526 58.197 152.664 57.9423C152.801 57.6834 152.989 57.4832 153.228 57.3417C153.47 57.2001 153.741 57.1294 154.041 57.1294C154.299 57.1294 154.54 57.19 154.762 57.3114C154.985 57.4286 155.155 57.5843 155.272 57.7785V56.0192H155.83V60.5083H155.272V59.8835C155.163 60.0816 155.001 60.2454 154.787 60.3748C154.572 60.5002 154.322 60.5629 154.034 60.5629C153.739 60.5629 153.47 60.4901 153.228 60.3445C152.989 60.1989 152.801 59.9947 152.664 59.7318C152.526 59.4689 152.457 59.1697 152.457 58.834ZM155.272 58.8401C155.272 58.5893 155.221 58.3709 155.12 58.1849C155.019 57.9989 154.882 57.8573 154.708 57.7603C154.538 57.6592 154.35 57.6086 154.144 57.6086C153.937 57.6086 153.749 57.6571 153.58 57.7542C153.41 57.8513 153.274 57.9928 153.173 58.1788C153.072 58.3649 153.021 58.5833 153.021 58.834C153.021 59.0888 153.072 59.3112 153.173 59.5013C153.274 59.6873 153.41 59.8309 153.58 59.932C153.749 60.0291 153.937 60.0776 154.144 60.0776C154.35 60.0776 154.538 60.0291 154.708 59.932C154.882 59.8309 155.019 59.6873 155.12 59.5013C155.221 59.3112 155.272 59.0908 155.272 58.8401ZM157.048 56.6441C156.943 56.6441 156.854 56.6077 156.781 56.5349C156.708 56.4621 156.672 56.3731 156.672 56.268C156.672 56.1628 156.708 56.0738 156.781 56.001C156.854 55.9282 156.943 55.8918 157.048 55.8918C157.149 55.8918 157.234 55.9282 157.303 56.001C157.376 56.0738 157.412 56.1628 157.412 56.268C157.412 56.3731 157.376 56.4621 157.303 56.5349C157.234 56.6077 157.149 56.6441 157.048 56.6441ZM157.315 57.184V60.5083H156.763V57.184H157.315ZM159.876 57.1233C160.28 57.1233 160.608 57.2467 160.858 57.4934C161.109 57.736 161.234 58.0878 161.234 58.5489V60.5083H160.688V58.6277C160.688 58.2961 160.606 58.0434 160.44 57.8695C160.274 57.6915 160.047 57.6025 159.76 57.6025C159.469 57.6025 159.237 57.6935 159.063 57.8755C158.893 58.0575 158.808 58.3224 158.808 58.6702V60.5083H158.256V57.184H158.808V57.6571C158.917 57.4873 159.065 57.3558 159.251 57.2628C159.441 57.1698 159.649 57.1233 159.876 57.1233ZM163.507 57.1294C163.794 57.1294 164.045 57.1921 164.259 57.3174C164.478 57.4428 164.64 57.6005 164.745 57.7906V57.184H165.303V60.5811C165.303 60.8844 165.238 61.1534 165.109 61.3879C164.979 61.6265 164.793 61.8126 164.551 61.946C164.312 62.0795 164.033 62.1462 163.713 62.1462C163.277 62.1462 162.913 62.0431 162.621 61.8368C162.33 61.6306 162.158 61.3495 162.106 60.9936H162.652C162.712 61.1958 162.838 61.3576 163.028 61.4789C163.218 61.6043 163.447 61.667 163.713 61.667C164.017 61.667 164.263 61.5719 164.454 61.3818C164.648 61.1918 164.745 60.9249 164.745 60.5811V59.8835C164.635 60.0776 164.474 60.2394 164.259 60.3688C164.045 60.4982 163.794 60.5629 163.507 60.5629C163.212 60.5629 162.943 60.4901 162.7 60.3445C162.462 60.1989 162.274 59.9947 162.136 59.7318C161.999 59.4689 161.93 59.1697 161.93 58.834C161.93 58.4943 161.999 58.197 162.136 57.9423C162.274 57.6834 162.462 57.4832 162.7 57.3417C162.943 57.2001 163.212 57.1294 163.507 57.1294ZM164.745 58.8401C164.745 58.5893 164.694 58.3709 164.593 58.1849C164.492 57.9989 164.354 57.8573 164.181 57.7603C164.011 57.6592 163.823 57.6086 163.616 57.6086C163.41 57.6086 163.222 57.6571 163.052 57.7542C162.882 57.8513 162.747 57.9928 162.646 58.1788C162.545 58.3649 162.494 58.5833 162.494 58.834C162.494 59.0888 162.545 59.3112 162.646 59.5013C162.747 59.6873 162.882 59.8309 163.052 59.932C163.222 60.0291 163.41 60.0776 163.616 60.0776C163.823 60.0776 164.011 60.0291 164.181 59.932C164.354 59.8309 164.492 59.6873 164.593 59.5013C164.694 59.3112 164.745 59.0908 164.745 58.8401Z" fill="white"/>
<path d="M141.238 66.3986C141.353 66.3076 141.405 66.2655 141.395 66.2722C141.725 65.9993 141.985 65.7751 142.174 65.5999C142.366 65.4246 142.528 65.241 142.659 65.0489C142.79 64.8568 142.856 64.6697 142.856 64.4877C142.856 64.3496 142.824 64.2417 142.76 64.1642C142.696 64.0867 142.6 64.0479 142.472 64.0479C142.344 64.0479 142.243 64.0968 142.169 64.1945C142.098 64.2889 142.062 64.4237 142.062 64.5989H141.228C141.235 64.3125 141.296 64.0732 141.41 63.8811C141.528 63.689 141.682 63.5475 141.87 63.4565C142.062 63.3655 142.275 63.32 142.507 63.32C142.908 63.32 143.21 63.4228 143.412 63.6283C143.618 63.8339 143.721 64.1018 143.721 64.4321C143.721 64.7927 143.598 65.1281 143.352 65.4381C143.106 65.7448 142.792 66.0447 142.411 66.338H143.776V67.0406H141.238V66.3986ZM146.169 62.2887L144.814 68.0365H143.98L145.335 62.2887H146.169ZM146.356 64.2046V63.4009H147.757V67.0912H146.857V64.2046H146.356ZM148.348 65.1955C148.348 64.6158 148.459 64.1591 148.682 63.8255C148.908 63.4918 149.27 63.325 149.769 63.325C150.267 63.325 150.628 63.4918 150.85 63.8255C151.076 64.1591 151.189 64.6158 151.189 65.1955C151.189 65.7819 151.076 66.2419 150.85 66.5756C150.628 66.9092 150.267 67.076 149.769 67.076C149.27 67.076 148.908 66.9092 148.682 66.5756C148.459 66.2419 148.348 65.7819 148.348 65.1955ZM150.34 65.1955C150.34 64.8551 150.303 64.5939 150.229 64.4119C150.155 64.2265 150.001 64.1339 149.769 64.1339C149.536 64.1339 149.383 64.2265 149.309 64.4119C149.234 64.5939 149.197 64.8551 149.197 65.1955C149.197 65.4246 149.211 65.6151 149.238 65.7667C149.265 65.915 149.319 66.0363 149.4 66.1307C149.484 66.2217 149.607 66.2672 149.769 66.2672C149.93 66.2672 150.052 66.2217 150.133 66.1307C150.217 66.0363 150.272 65.915 150.299 65.7667C150.326 65.6151 150.34 65.4246 150.34 65.1955Z" fill="white"/>
<circle cx="2.52762" cy="2.52762" r="2.52762" transform="matrix(1 0 0 -1 133.964 60.5746)" fill="white"/>
<rect x="23.2541" y="93.5222" width="167.834" height="25.2762" rx="7.58287" fill="white"/>
<path d="M36.6039 104.424V108.622H36.0519V105.491L34.6566 108.622H34.2684L32.8671 105.485V108.622H32.315V104.424H32.9095L34.4625 107.894L36.0155 104.424H36.6039ZM37.3339 106.947C37.3339 106.608 37.4026 106.31 37.5401 106.056C37.6776 105.797 37.8657 105.597 38.1043 105.455C38.3469 105.314 38.6159 105.243 38.9111 105.243C39.2023 105.243 39.455 105.305 39.6694 105.431C39.8837 105.556 40.0435 105.714 40.1486 105.904V105.297H40.7067V108.622H40.1486V108.003C40.0394 108.197 39.8756 108.359 39.6572 108.488C39.4429 108.614 39.1922 108.676 38.905 108.676C38.6098 108.676 38.3429 108.604 38.1043 108.458C37.8657 108.312 37.6776 108.108 37.5401 107.845C37.4026 107.582 37.3339 107.283 37.3339 106.947ZM40.1486 106.953C40.1486 106.703 40.0981 106.484 39.997 106.298C39.8959 106.112 39.7584 105.971 39.5845 105.874C39.4146 105.773 39.2265 105.722 39.0203 105.722C38.814 105.722 38.626 105.771 38.4561 105.868C38.2863 105.965 38.1508 106.106 38.0497 106.292C37.9486 106.478 37.898 106.697 37.898 106.947C37.898 107.202 37.9486 107.425 38.0497 107.615C38.1508 107.801 38.2863 107.944 38.4561 108.045C38.626 108.142 38.814 108.191 39.0203 108.191C39.2265 108.191 39.4146 108.142 39.5845 108.045C39.7584 107.944 39.8959 107.801 39.997 107.615C40.0981 107.425 40.1486 107.204 40.1486 106.953ZM43.3746 108.622L42.5859 107.384L41.8277 108.622H41.2514L42.3251 106.972L41.2514 105.297H41.8762L42.6648 106.529L43.417 105.297H43.9933L42.9257 106.941L43.9994 108.622H43.3746ZM47.5004 108.664C47.2213 108.664 46.9706 108.616 46.7481 108.519C46.5297 108.417 46.3579 108.28 46.2325 108.106C46.1071 107.928 46.0424 107.724 46.0384 107.493H46.6268C46.647 107.692 46.7279 107.859 46.8695 107.997C47.0151 108.13 47.2253 108.197 47.5004 108.197C47.7632 108.197 47.9695 108.132 48.1191 108.003C48.2728 107.869 48.3496 107.7 48.3496 107.493C48.3496 107.332 48.3052 107.2 48.2162 107.099C48.1272 106.998 48.016 106.921 47.8825 106.869C47.7491 106.816 47.5691 106.759 47.3426 106.699C47.0636 106.626 46.8391 106.553 46.6693 106.48C46.5035 106.408 46.3599 106.294 46.2386 106.141C46.1213 105.983 46.0626 105.773 46.0626 105.51C46.0626 105.279 46.1213 105.075 46.2386 104.897C46.3558 104.719 46.5196 104.582 46.7299 104.484C46.9443 104.387 47.189 104.339 47.464 104.339C47.8603 104.339 48.1838 104.438 48.4346 104.636C48.6894 104.834 48.8329 105.097 48.8653 105.425H48.2586C48.2384 105.263 48.1535 105.121 48.0039 105C47.8542 104.875 47.6561 104.812 47.4094 104.812C47.1788 104.812 46.9908 104.873 46.8452 104.994C46.6996 105.111 46.6268 105.277 46.6268 105.491C46.6268 105.645 46.6693 105.771 46.7542 105.868C46.8432 105.965 46.9503 106.039 47.0757 106.092C47.2051 106.141 47.3851 106.197 47.6156 106.262C47.8947 106.339 48.1191 106.416 48.289 106.492C48.4588 106.565 48.6044 106.68 48.7257 106.838C48.8471 106.992 48.9077 107.202 48.9077 107.469C48.9077 107.675 48.8531 107.869 48.7439 108.051C48.6348 108.233 48.473 108.381 48.2586 108.494C48.0443 108.608 47.7915 108.664 47.5004 108.664ZM49.5138 106.953C49.5138 106.61 49.5826 106.31 49.7201 106.056C49.8576 105.797 50.0477 105.597 50.2903 105.455C50.537 105.314 50.8181 105.243 51.1335 105.243C51.542 105.243 51.8777 105.342 52.1406 105.54C52.4075 105.738 52.5834 106.013 52.6683 106.365H52.0738C52.0172 106.163 51.906 106.003 51.7402 105.886C51.5784 105.769 51.3762 105.71 51.1335 105.71C50.8181 105.71 50.5633 105.819 50.3692 106.037C50.1751 106.252 50.078 106.557 50.078 106.953C50.078 107.354 50.1751 107.663 50.3692 107.882C50.5633 108.1 50.8181 108.209 51.1335 108.209C51.3762 108.209 51.5784 108.153 51.7402 108.039C51.9019 107.926 52.0132 107.764 52.0738 107.554H52.6683C52.5793 107.894 52.4014 108.167 52.1345 108.373C51.8676 108.575 51.5339 108.676 51.1335 108.676C50.8181 108.676 50.537 108.606 50.2903 108.464C50.0477 108.322 49.8576 108.122 49.7201 107.863C49.5826 107.605 49.5138 107.301 49.5138 106.953ZM54.8547 108.676C54.5433 108.676 54.2602 108.606 54.0055 108.464C53.7547 108.322 53.5566 108.122 53.411 107.863C53.2694 107.601 53.1986 107.297 53.1986 106.953C53.1986 106.614 53.2714 106.314 53.417 106.056C53.5667 105.793 53.7689 105.593 54.0237 105.455C54.2784 105.314 54.5636 105.243 54.879 105.243C55.1945 105.243 55.4796 105.314 55.7344 105.455C55.9891 105.593 56.1893 105.791 56.3349 106.05C56.4846 106.308 56.5594 106.61 56.5594 106.953C56.5594 107.297 56.4825 107.601 56.3289 107.863C56.1792 108.122 55.975 108.322 55.7162 108.464C55.4573 108.606 55.1702 108.676 54.8547 108.676ZM54.8547 108.191C55.0529 108.191 55.2389 108.144 55.4128 108.051C55.5867 107.958 55.7263 107.819 55.8314 107.633C55.9406 107.447 55.9952 107.22 55.9952 106.953C55.9952 106.687 55.9426 106.46 55.8375 106.274C55.7323 106.088 55.5948 105.951 55.425 105.862C55.2551 105.769 55.0711 105.722 54.8729 105.722C54.6707 105.722 54.4847 105.769 54.3148 105.862C54.149 105.951 54.0156 106.088 53.9145 106.274C53.8134 106.46 53.7628 106.687 53.7628 106.953C53.7628 107.224 53.8113 107.453 53.9084 107.639C54.0095 107.825 54.143 107.965 54.3088 108.058C54.4746 108.147 54.6566 108.191 54.8547 108.191ZM57.8372 105.837C57.9343 105.647 58.0718 105.5 58.2497 105.394C58.4317 105.289 58.6521 105.237 58.911 105.237V105.807H58.7654C58.1466 105.807 57.8372 106.143 57.8372 106.814V108.622H57.2852V105.297H57.8372V105.837ZM62.5814 106.832C62.5814 106.937 62.5753 107.049 62.5632 107.166H59.9061C59.9263 107.493 60.0376 107.75 60.2398 107.936C60.446 108.118 60.6947 108.209 60.9859 108.209C61.2245 108.209 61.4227 108.155 61.5804 108.045C61.7422 107.932 61.8554 107.783 61.9201 107.596H62.5146C62.4257 107.916 62.2477 108.177 61.9808 108.379C61.7139 108.577 61.3823 108.676 60.9859 108.676C60.6705 108.676 60.3874 108.606 60.1366 108.464C59.8899 108.322 59.6958 108.122 59.5543 107.863C59.4127 107.601 59.342 107.297 59.342 106.953C59.342 106.61 59.4107 106.308 59.5482 106.05C59.6857 105.791 59.8778 105.593 60.1245 105.455C60.3753 105.314 60.6624 105.243 60.9859 105.243C61.3014 105.243 61.5804 105.312 61.8231 105.449C62.0657 105.587 62.2518 105.777 62.3812 106.019C62.5146 106.258 62.5814 106.529 62.5814 106.832ZM62.0111 106.717C62.0111 106.507 61.9646 106.327 61.8716 106.177C61.7786 106.023 61.6512 105.908 61.4894 105.831C61.3317 105.75 61.1558 105.71 60.9617 105.71C60.6826 105.71 60.444 105.799 60.2458 105.977C60.0517 106.155 59.9405 106.401 59.9122 106.717H62.0111Z" fill="black"/>
<path d="M68.3014 104.578L67.0325 107.622H66.1478L67.4319 104.674H65.8597V103.936H68.3014V104.578ZM68.651 105.726C68.651 105.146 68.7622 104.69 68.9846 104.356C69.2104 104.022 69.5727 103.856 70.0715 103.856C70.5703 103.856 70.9309 104.022 71.1533 104.356C71.3791 104.69 71.492 105.146 71.492 105.726C71.492 106.312 71.3791 106.772 71.1533 107.106C70.9309 107.44 70.5703 107.607 70.0715 107.607C69.5727 107.607 69.2104 107.44 68.9846 107.106C68.7622 106.772 68.651 106.312 68.651 105.726ZM70.6427 105.726C70.6427 105.386 70.6057 105.124 70.5315 104.942C70.4574 104.757 70.304 104.664 70.0715 104.664C69.839 104.664 69.6856 104.757 69.6115 104.942C69.5373 105.124 69.5003 105.386 69.5003 105.726C69.5003 105.955 69.5137 106.146 69.5407 106.297C69.5677 106.446 69.6216 106.567 69.7025 106.661C69.7867 106.752 69.9097 106.798 70.0715 106.798C70.2333 106.798 70.3546 106.752 70.4355 106.661C70.5197 106.567 70.5753 106.446 70.6023 106.297C70.6293 106.146 70.6427 105.955 70.6427 105.726ZM73.9607 102.819L72.6059 108.567H71.7718L73.1266 102.819H73.9607ZM74.1484 104.735V103.931H75.5487V107.622H74.6489V104.735H74.1484ZM76.14 105.726C76.14 105.146 76.2513 104.69 76.4737 104.356C76.6995 104.022 77.0618 103.856 77.5606 103.856C78.0594 103.856 78.42 104.022 78.6424 104.356C78.8682 104.69 78.9811 105.146 78.9811 105.726C78.9811 106.312 78.8682 106.772 78.6424 107.106C78.42 107.44 78.0594 107.607 77.5606 107.607C77.0618 107.607 76.6995 107.44 76.4737 107.106C76.2513 106.772 76.14 106.312 76.14 105.726ZM78.1318 105.726C78.1318 105.386 78.0947 105.124 78.0206 104.942C77.9465 104.757 77.7931 104.664 77.5606 104.664C77.328 104.664 77.1747 104.757 77.1005 104.942C77.0264 105.124 76.9893 105.386 76.9893 105.726C76.9893 105.955 77.0028 106.146 77.0298 106.297C77.0567 106.446 77.1107 106.567 77.1915 106.661C77.2758 106.752 77.3988 106.798 77.5606 106.798C77.7223 106.798 77.8437 106.752 77.9246 106.661C78.0088 106.567 78.0644 106.446 78.0914 106.297C78.1183 106.146 78.1318 105.955 78.1318 105.726ZM79.4378 105.726C79.4378 105.146 79.549 104.69 79.7715 104.356C79.9973 104.022 80.3595 103.856 80.8583 103.856C81.3571 103.856 81.7177 104.022 81.9402 104.356C82.166 104.69 82.2789 105.146 82.2789 105.726C82.2789 106.312 82.166 106.772 81.9402 107.106C81.7177 107.44 81.3571 107.607 80.8583 107.607C80.3595 107.607 79.9973 107.44 79.7715 107.106C79.549 106.772 79.4378 106.312 79.4378 105.726ZM81.4296 105.726C81.4296 105.386 81.3925 105.124 81.3184 104.942C81.2442 104.757 81.0909 104.664 80.8583 104.664C80.6258 104.664 80.4724 104.757 80.3983 104.942C80.3242 105.124 80.2871 105.386 80.2871 105.726C80.2871 105.955 80.3006 106.146 80.3275 106.297C80.3545 106.446 80.4084 106.567 80.4893 106.661C80.5736 106.752 80.6966 106.798 80.8583 106.798C81.0201 106.798 81.1414 106.752 81.2223 106.661C81.3066 106.567 81.3622 106.446 81.3891 106.297C81.4161 106.146 81.4296 105.955 81.4296 105.726Z" fill="black"/>
<path d="M102.828 104.424V108.622H102.276V105.491L100.88 108.622H100.492L99.0908 105.485V108.622H98.5388V104.424H99.1333L100.686 107.894L102.239 104.424H102.828ZM104.049 104.757C103.944 104.757 103.855 104.721 103.782 104.648C103.709 104.575 103.673 104.487 103.673 104.381C103.673 104.276 103.709 104.187 103.782 104.114C103.855 104.042 103.944 104.005 104.049 104.005C104.15 104.005 104.235 104.042 104.304 104.114C104.377 104.187 104.413 104.276 104.413 104.381C104.413 104.487 104.377 104.575 104.304 104.648C104.235 104.721 104.15 104.757 104.049 104.757ZM104.316 105.297V108.622H103.764V105.297H104.316ZM106.876 105.237C107.281 105.237 107.608 105.36 107.859 105.607C108.11 105.849 108.235 106.201 108.235 106.662V108.622H107.689V106.741C107.689 106.41 107.606 106.157 107.441 105.983C107.275 105.805 107.048 105.716 106.761 105.716C106.47 105.716 106.237 105.807 106.064 105.989C105.894 106.171 105.809 106.436 105.809 106.784V108.622H105.257V105.297H105.809V105.771C105.918 105.601 106.066 105.469 106.252 105.376C106.442 105.283 106.65 105.237 106.876 105.237ZM112.095 108.664C111.816 108.664 111.565 108.616 111.343 108.519C111.124 108.417 110.952 108.28 110.827 108.106C110.702 107.928 110.637 107.724 110.633 107.493H111.221C111.242 107.692 111.323 107.859 111.464 107.997C111.61 108.13 111.82 108.197 112.095 108.197C112.358 108.197 112.564 108.132 112.714 108.003C112.867 107.869 112.944 107.7 112.944 107.493C112.944 107.332 112.9 107.2 112.811 107.099C112.722 106.998 112.611 106.921 112.477 106.869C112.344 106.816 112.164 106.759 111.937 106.699C111.658 106.626 111.434 106.553 111.264 106.48C111.098 106.408 110.955 106.294 110.833 106.141C110.716 105.983 110.657 105.773 110.657 105.51C110.657 105.279 110.716 105.075 110.833 104.897C110.95 104.719 111.114 104.582 111.325 104.484C111.539 104.387 111.784 104.339 112.059 104.339C112.455 104.339 112.778 104.438 113.029 104.636C113.284 104.834 113.428 105.097 113.46 105.425H112.853C112.833 105.263 112.748 105.121 112.598 105C112.449 104.875 112.251 104.812 112.004 104.812C111.773 104.812 111.585 104.873 111.44 104.994C111.294 105.111 111.221 105.277 111.221 105.491C111.221 105.645 111.264 105.771 111.349 105.868C111.438 105.965 111.545 106.039 111.67 106.092C111.8 106.141 111.98 106.197 112.21 106.262C112.489 106.339 112.714 106.416 112.884 106.492C113.053 106.565 113.199 106.68 113.32 106.838C113.442 106.992 113.502 107.202 113.502 107.469C113.502 107.675 113.448 107.869 113.339 108.051C113.229 108.233 113.068 108.381 112.853 108.494C112.639 108.608 112.386 108.664 112.095 108.664ZM114.108 106.953C114.108 106.61 114.177 106.31 114.315 106.056C114.452 105.797 114.642 105.597 114.885 105.455C115.132 105.314 115.413 105.243 115.728 105.243C116.137 105.243 116.472 105.342 116.735 105.54C117.002 105.738 117.178 106.013 117.263 106.365H116.668C116.612 106.163 116.501 106.003 116.335 105.886C116.173 105.769 115.971 105.71 115.728 105.71C115.413 105.71 115.158 105.819 114.964 106.037C114.77 106.252 114.673 106.557 114.673 106.953C114.673 107.354 114.77 107.663 114.964 107.882C115.158 108.1 115.413 108.209 115.728 108.209C115.971 108.209 116.173 108.153 116.335 108.039C116.497 107.926 116.608 107.764 116.668 107.554H117.263C117.174 107.894 116.996 108.167 116.729 108.373C116.462 108.575 116.129 108.676 115.728 108.676C115.413 108.676 115.132 108.606 114.885 108.464C114.642 108.322 114.452 108.122 114.315 107.863C114.177 107.605 114.108 107.301 114.108 106.953ZM119.449 108.676C119.138 108.676 118.855 108.606 118.6 108.464C118.349 108.322 118.151 108.122 118.006 107.863C117.864 107.601 117.793 107.297 117.793 106.953C117.793 106.614 117.866 106.314 118.012 106.056C118.161 105.793 118.364 105.593 118.618 105.455C118.873 105.314 119.158 105.243 119.474 105.243C119.789 105.243 120.074 105.314 120.329 105.455C120.584 105.593 120.784 105.791 120.93 106.05C121.079 106.308 121.154 106.61 121.154 106.953C121.154 107.297 121.077 107.601 120.923 107.863C120.774 108.122 120.57 108.322 120.311 108.464C120.052 108.606 119.765 108.676 119.449 108.676ZM119.449 108.191C119.648 108.191 119.834 108.144 120.007 108.051C120.181 107.958 120.321 107.819 120.426 107.633C120.535 107.447 120.59 107.22 120.59 106.953C120.59 106.687 120.537 106.46 120.432 106.274C120.327 106.088 120.189 105.951 120.02 105.862C119.85 105.769 119.666 105.722 119.468 105.722C119.265 105.722 119.079 105.769 118.909 105.862C118.744 105.951 118.61 106.088 118.509 106.274C118.408 106.46 118.357 106.687 118.357 106.953C118.357 107.224 118.406 107.453 118.503 107.639C118.604 107.825 118.738 107.965 118.903 108.058C119.069 108.147 119.251 108.191 119.449 108.191ZM122.432 105.837C122.529 105.647 122.666 105.5 122.844 105.394C123.026 105.289 123.247 105.237 123.506 105.237V105.807H123.36C122.741 105.807 122.432 106.143 122.432 106.814V108.622H121.88V105.297H122.432V105.837ZM127.176 106.832C127.176 106.937 127.17 107.049 127.158 107.166H124.501C124.521 107.493 124.632 107.75 124.834 107.936C125.041 108.118 125.289 108.209 125.581 108.209C125.819 108.209 126.017 108.155 126.175 108.045C126.337 107.932 126.45 107.783 126.515 107.596H127.109C127.02 107.916 126.842 108.177 126.575 108.379C126.309 108.577 125.977 108.676 125.581 108.676C125.265 108.676 124.982 108.606 124.731 108.464C124.485 108.322 124.29 108.122 124.149 107.863C124.007 107.601 123.937 107.297 123.937 106.953C123.937 106.61 124.005 106.308 124.143 106.05C124.28 105.791 124.472 105.593 124.719 105.455C124.97 105.314 125.257 105.243 125.581 105.243C125.896 105.243 126.175 105.312 126.418 105.449C126.66 105.587 126.846 105.777 126.976 106.019C127.109 106.258 127.176 106.529 127.176 106.832ZM126.606 106.717C126.606 106.507 126.559 106.327 126.466 106.177C126.373 106.023 126.246 105.908 126.084 105.831C125.926 105.75 125.75 105.71 125.556 105.71C125.277 105.71 125.039 105.799 124.84 105.977C124.646 106.155 124.535 106.401 124.507 106.717H126.606Z" fill="black"/>
<path d="M134.768 104.685H133.191V105.382C133.258 105.308 133.352 105.247 133.474 105.2C133.595 105.153 133.727 105.129 133.868 105.129C134.121 105.129 134.33 105.187 134.495 105.301C134.663 105.416 134.786 105.564 134.864 105.746C134.941 105.928 134.98 106.125 134.98 106.338C134.98 106.732 134.869 107.045 134.647 107.278C134.424 107.507 134.111 107.622 133.706 107.622C133.437 107.622 133.202 107.576 133.004 107.485C132.805 107.391 132.651 107.261 132.544 107.096C132.436 106.931 132.377 106.74 132.367 106.525H133.211C133.231 106.629 133.28 106.717 133.357 106.788C133.435 106.855 133.541 106.889 133.676 106.889C133.834 106.889 133.952 106.838 134.03 106.737C134.107 106.636 134.146 106.501 134.146 106.333C134.146 106.167 134.106 106.041 134.025 105.953C133.944 105.866 133.826 105.822 133.671 105.822C133.556 105.822 133.462 105.851 133.388 105.908C133.314 105.962 133.265 106.034 133.241 106.125H132.407V103.926H134.768V104.685ZM135.457 105.726C135.457 105.146 135.569 104.69 135.791 104.356C136.017 104.022 136.379 103.856 136.878 103.856C137.377 103.856 137.737 104.022 137.96 104.356C138.186 104.69 138.298 105.146 138.298 105.726C138.298 106.312 138.186 106.772 137.96 107.106C137.737 107.44 137.377 107.607 136.878 107.607C136.379 107.607 136.017 107.44 135.791 107.106C135.569 106.772 135.457 106.312 135.457 105.726ZM137.449 105.726C137.449 105.386 137.412 105.124 137.338 104.942C137.264 104.757 137.11 104.664 136.878 104.664C136.645 104.664 136.492 104.757 136.418 104.942C136.344 105.124 136.307 105.386 136.307 105.726C136.307 105.955 136.32 106.146 136.347 106.297C136.374 106.446 136.428 106.567 136.509 106.661C136.593 106.752 136.716 106.798 136.878 106.798C137.04 106.798 137.161 106.752 137.242 106.661C137.326 106.567 137.382 106.446 137.409 106.297C137.436 106.146 137.449 105.955 137.449 105.726ZM140.767 102.819L139.412 108.567H138.578L139.933 102.819H140.767ZM140.955 104.735V103.931H142.355V107.622H141.455V104.735H140.955ZM142.946 105.726C142.946 105.146 143.058 104.69 143.28 104.356C143.506 104.022 143.868 103.856 144.367 103.856C144.866 103.856 145.226 104.022 145.449 104.356C145.675 104.69 145.788 105.146 145.788 105.726C145.788 106.312 145.675 106.772 145.449 107.106C145.226 107.44 144.866 107.607 144.367 107.607C143.868 107.607 143.506 107.44 143.28 107.106C143.058 106.772 142.946 106.312 142.946 105.726ZM144.938 105.726C144.938 105.386 144.901 105.124 144.827 104.942C144.753 104.757 144.6 104.664 144.367 104.664C144.134 104.664 143.981 104.757 143.907 104.942C143.833 105.124 143.796 105.386 143.796 105.726C143.796 105.955 143.809 106.146 143.836 106.297C143.863 106.446 143.917 106.567 143.998 106.661C144.082 106.752 144.205 106.798 144.367 106.798C144.529 106.798 144.65 106.752 144.731 106.661C144.815 106.567 144.871 106.446 144.898 106.297C144.925 106.146 144.938 105.955 144.938 105.726ZM146.244 105.726C146.244 105.146 146.355 104.69 146.578 104.356C146.804 104.022 147.166 103.856 147.665 103.856C148.164 103.856 148.524 104.022 148.747 104.356C148.972 104.69 149.085 105.146 149.085 105.726C149.085 106.312 148.972 106.772 148.747 107.106C148.524 107.44 148.164 107.607 147.665 107.607C147.166 107.607 146.804 107.44 146.578 107.106C146.355 106.772 146.244 106.312 146.244 105.726ZM148.236 105.726C148.236 105.386 148.199 105.124 148.125 104.942C148.051 104.757 147.897 104.664 147.665 104.664C147.432 104.664 147.279 104.757 147.205 104.942C147.131 105.124 147.094 105.386 147.094 105.726C147.094 105.955 147.107 106.146 147.134 106.297C147.161 106.446 147.215 106.567 147.296 106.661C147.38 106.752 147.503 106.798 147.665 106.798C147.827 106.798 147.948 106.752 148.029 106.661C148.113 106.567 148.169 106.446 148.196 106.297C148.223 106.146 148.236 105.955 148.236 105.726Z" fill="black"/>
<rect x="170.867" y="98.5775" width="15.1657" height="15.1657" rx="2.52762" fill="#86ACFF"/>
<path d="M174.81 109.699C174.695 109.699 174.599 109.661 174.522 109.586C174.444 109.51 174.406 109.417 174.405 109.306V105.374C174.405 105.263 174.444 105.169 174.522 105.094C174.599 105.019 174.695 104.981 174.81 104.981H176.225C176.34 104.981 176.436 105.019 176.514 105.094C176.591 105.17 176.63 105.263 176.63 105.374V109.306C176.63 109.417 176.591 109.511 176.513 109.586C176.436 109.662 176.34 109.699 176.225 109.699H174.81ZM177.742 109.699C177.627 109.699 177.531 109.661 177.454 109.586C177.376 109.51 177.338 109.417 177.337 109.306V103.015C177.337 102.903 177.376 102.81 177.454 102.735C177.532 102.66 177.627 102.622 177.742 102.622H179.157C179.272 102.622 179.368 102.659 179.446 102.735C179.523 102.81 179.562 102.904 179.562 103.015V109.306C179.562 109.417 179.523 109.511 179.445 109.586C179.368 109.662 179.272 109.699 179.157 109.699H177.742ZM180.674 109.699C180.559 109.699 180.463 109.661 180.386 109.586C180.309 109.51 180.27 109.417 180.269 109.306V106.16C180.269 106.049 180.308 105.956 180.386 105.88C180.464 105.805 180.56 105.767 180.674 105.767H182.089C182.204 105.767 182.3 105.805 182.378 105.88C182.455 105.956 182.494 106.049 182.494 106.16V109.306C182.494 109.417 182.455 109.511 182.377 109.586C182.3 109.662 182.204 109.699 182.089 109.699H180.674Z" fill="white"/>
<rect x="87.4554" y="11.1216" width="46.5083" height="11.1215" rx="5.05525" fill="white"/>
<path d="M97.3575 14.6589L96.3363 18.1824H95.8207L95.0017 15.3464L94.1524 18.1824L93.6419 18.1874L92.6561 14.6589H93.1465L93.9149 17.6465L94.7641 14.6589H95.2798L96.0886 17.6364L96.8621 14.6589H97.3575ZM100.389 16.6911C100.389 16.7787 100.383 16.8714 100.373 16.9691H98.1592C98.176 17.2421 98.2687 17.4561 98.4372 17.6111C98.6091 17.7628 98.8164 17.8386 99.059 17.8386C99.2578 17.8386 99.423 17.7931 99.5544 17.7021C99.6892 17.6078 99.7836 17.4831 99.8375 17.328H100.333C100.259 17.5943 100.11 17.8117 99.8881 17.9802C99.6656 18.1453 99.3893 18.2279 99.059 18.2279C98.7961 18.2279 98.5602 18.1689 98.3513 18.0509C98.1457 17.933 97.9839 17.7662 97.866 17.5505C97.748 17.3314 97.689 17.0786 97.689 16.7922C97.689 16.5057 97.7463 16.2546 97.8609 16.0389C97.9755 15.8233 98.1356 15.6581 98.3412 15.5435C98.5501 15.4256 98.7894 15.3666 99.059 15.3666C99.3219 15.3666 99.5544 15.4239 99.7566 15.5385C99.9588 15.6531 100.114 15.8115 100.222 16.0137C100.333 16.2125 100.389 16.4383 100.389 16.6911ZM99.9133 16.595C99.9133 16.4198 99.8746 16.2698 99.7971 16.1451C99.7196 16.017 99.6134 15.921 99.4786 15.857C99.3472 15.7896 99.2005 15.7559 99.0388 15.7559C98.8062 15.7559 98.6074 15.83 98.4423 15.9783C98.2805 16.1266 98.1878 16.3322 98.1642 16.595H99.9133ZM103.523 16.6911C103.523 16.7787 103.518 16.8714 103.508 16.9691H101.294C101.311 17.2421 101.404 17.4561 101.572 17.6111C101.744 17.7628 101.951 17.8386 102.194 17.8386C102.393 17.8386 102.558 17.7931 102.689 17.7021C102.824 17.6078 102.918 17.4831 102.972 17.328H103.468C103.394 17.5943 103.245 17.8117 103.023 17.9802C102.8 18.1453 102.524 18.2279 102.194 18.2279C101.931 18.2279 101.695 18.1689 101.486 18.0509C101.281 17.933 101.119 17.7662 101.001 17.5505C100.883 17.3314 100.824 17.0786 100.824 16.7922C100.824 16.5057 100.881 16.2546 100.996 16.0389C101.11 15.8233 101.27 15.6581 101.476 15.5435C101.685 15.4256 101.924 15.3666 102.194 15.3666C102.457 15.3666 102.689 15.4239 102.891 15.5385C103.094 15.6531 103.249 15.8115 103.357 16.0137C103.468 16.2125 103.523 16.4383 103.523 16.6911ZM103.048 16.595C103.048 16.4198 103.009 16.2698 102.932 16.1451C102.854 16.017 102.748 15.921 102.613 15.857C102.482 15.7896 102.335 15.7559 102.174 15.7559C101.941 15.7559 101.742 15.83 101.577 15.9783C101.415 16.1266 101.323 16.3322 101.299 16.595H103.048ZM105.678 18.1824L104.591 16.959V18.1824H104.131V14.4415H104.591V16.6405L105.657 15.4121H106.299L104.995 16.7922L106.304 18.1824H105.678ZM107.883 14.947V14.5274H108.833V18.1824H108.368V14.947H107.883ZM110.174 17.5454L109.608 18.9053H109.3L109.669 17.5454H110.174ZM114.218 14.6589V15.033H113.257V18.1824H112.797V15.033H111.832V14.6589H114.218ZM117.312 16.6911C117.312 16.7787 117.307 16.8714 117.297 16.9691H115.082C115.099 17.2421 115.192 17.4561 115.36 17.6111C115.532 17.7628 115.74 17.8386 115.982 17.8386C116.181 17.8386 116.346 17.7931 116.478 17.7021C116.612 17.6078 116.707 17.4831 116.761 17.328H117.256C117.182 17.5943 117.034 17.8117 116.811 17.9802C116.589 18.1453 116.313 18.2279 115.982 18.2279C115.719 18.2279 115.483 18.1689 115.275 18.0509C115.069 17.933 114.907 17.7662 114.789 17.5505C114.671 17.3314 114.612 17.0786 114.612 16.7922C114.612 16.5057 114.67 16.2546 114.784 16.0389C114.899 15.8233 115.059 15.6581 115.264 15.5435C115.473 15.4256 115.713 15.3666 115.982 15.3666C116.245 15.3666 116.478 15.4239 116.68 15.5385C116.882 15.6531 117.037 15.8115 117.145 16.0137C117.256 16.2125 117.312 16.4383 117.312 16.6911ZM116.837 16.595C116.837 16.4198 116.798 16.2698 116.72 16.1451C116.643 16.017 116.537 15.921 116.402 15.857C116.27 15.7896 116.124 15.7559 115.962 15.7559C115.729 15.7559 115.531 15.83 115.365 15.9783C115.204 16.1266 115.111 16.3322 115.087 16.595H116.837ZM118.379 15.862C118.46 15.7036 118.574 15.5806 118.723 15.493C118.874 15.4054 119.058 15.3615 119.274 15.3615V15.8367H119.152C118.637 15.8367 118.379 16.1165 118.379 16.6759V18.1824H117.919V15.4121H118.379V15.862ZM123.136 15.3615C123.352 15.3615 123.544 15.407 123.713 15.498C123.881 15.5857 124.014 15.7188 124.112 15.8974C124.21 16.076 124.259 16.2934 124.259 16.5495V18.1824H123.804V16.6152C123.804 16.3389 123.734 16.1283 123.596 15.9833C123.461 15.8351 123.278 15.7609 123.045 15.7609C122.806 15.7609 122.616 15.8384 122.474 15.9935C122.332 16.1451 122.262 16.3659 122.262 16.6557V18.1824H121.807V16.6152C121.807 16.3389 121.738 16.1283 121.599 15.9833C121.465 15.8351 121.281 15.7609 121.048 15.7609C120.809 15.7609 120.619 15.8384 120.477 15.9935C120.336 16.1451 120.265 16.3659 120.265 16.6557V18.1824H119.805V15.4121H120.265V15.8115C120.356 15.6665 120.477 15.5553 120.629 15.4778C120.784 15.4003 120.954 15.3615 121.139 15.3615C121.372 15.3615 121.578 15.4138 121.756 15.5183C121.935 15.6227 122.068 15.7761 122.156 15.9783C122.233 15.7828 122.361 15.6312 122.54 15.5233C122.718 15.4155 122.917 15.3615 123.136 15.3615ZM126.229 17.8133C126.657 17.4696 126.993 17.1882 127.235 16.9691C127.478 16.7467 127.682 16.5158 127.847 16.2765C128.016 16.0339 128.1 15.7963 128.1 15.5638C128.1 15.3447 128.046 15.1728 127.938 15.0481C127.834 14.9201 127.663 14.856 127.428 14.856C127.198 14.856 127.02 14.9285 126.892 15.0734C126.767 15.2149 126.7 15.4054 126.689 15.6446H126.245C126.258 15.2672 126.373 14.9757 126.588 14.7701C126.804 14.5645 127.082 14.4617 127.422 14.4617C127.77 14.4617 128.044 14.5578 128.246 14.7499C128.452 14.942 128.555 15.2065 128.555 15.5435C128.555 15.8233 128.471 16.0962 128.302 16.3625C128.137 16.6254 127.948 16.8579 127.736 17.0601C127.524 17.2589 127.252 17.4915 126.922 17.7577H128.661V18.1419H126.229V17.8133Z" fill="black"/>
<path fill-rule="evenodd" clip-rule="evenodd" d="M179.461 15.3535C179.461 14.7674 179.694 14.2053 180.109 13.7909C180.523 13.3765 181.085 13.1437 181.671 13.1437H184.011C184.132 13.1437 184.248 13.1916 184.333 13.2769C184.418 13.3623 184.466 13.478 184.466 13.5986C184.466 13.7193 184.418 13.835 184.333 13.9204C184.248 14.0057 184.132 14.0536 184.011 14.0536H181.671C181.326 14.0536 180.996 14.1906 180.752 14.4343C180.508 14.6781 180.371 15.0087 180.371 15.3535V20.0333C180.371 20.3781 180.508 20.7087 180.752 20.9525C180.996 21.1962 181.326 21.3332 181.671 21.3332H186.351C186.696 21.3332 187.026 21.1962 187.27 20.9525C187.514 20.7087 187.651 20.3781 187.651 20.0333V17.6934C187.651 17.5727 187.699 17.457 187.784 17.3717C187.87 17.2864 187.985 17.2384 188.106 17.2384C188.227 17.2384 188.342 17.2864 188.428 17.3717C188.513 17.457 188.561 17.5727 188.561 17.6934V20.0333C188.561 20.6194 188.328 21.1815 187.914 21.5959C187.499 22.0103 186.937 22.2431 186.351 22.2431H181.671C181.085 22.2431 180.523 22.0103 180.109 21.5959C179.694 21.1815 179.461 20.6194 179.461 20.0333V15.3535Z" fill="white"/>
<path fill-rule="evenodd" clip-rule="evenodd" d="M185.438 18.248L184.435 18.8531L183.965 18.0737L184.968 17.4686L184.97 17.4677C185.008 17.4445 185.044 17.4167 185.075 17.3849L187.355 15.0937C187.378 15.0706 187.4 15.0468 187.421 15.0222C187.571 14.8466 187.794 14.499 187.525 14.2278C187.297 13.9985 186.97 14.2151 186.758 14.4012C186.702 14.4512 186.647 14.5036 186.595 14.5582L186.579 14.5736L184.332 16.8326C184.278 16.8856 184.236 16.9491 184.209 17.0191L183.834 17.9623C183.827 17.98 183.825 17.9995 183.83 18.0181C183.835 18.0366 183.845 18.0533 183.86 18.0656C183.874 18.0779 183.892 18.0854 183.911 18.0868C183.93 18.0883 183.949 18.0837 183.965 18.0737L184.435 18.8531C183.614 19.3481 182.634 18.5164 182.988 17.6256L183.364 16.6829C183.437 16.4987 183.547 16.3313 183.687 16.191L185.934 13.9317L185.947 13.9185C186.014 13.8502 186.239 13.62 186.511 13.4544C186.66 13.3648 186.898 13.246 187.191 13.2233C187.528 13.1964 187.887 13.3024 188.169 13.5859C188.385 13.7992 188.521 14.0804 188.554 14.3821C188.576 14.6172 188.54 14.8543 188.449 15.0723C188.317 15.3985 188.097 15.6383 188 15.7352L185.721 18.0264C185.636 18.1116 185.542 18.1855 185.438 18.248ZM187.464 15.0058C187.464 15.0058 187.463 15.0072 187.459 15.0086L187.464 15.0058Z" fill="white"/>
</g>
<defs>
<filter id="filter0_dddd_8819_11792" x="-6.67572e-06" y="5.36442e-05" width="214.343" height="181.483" filterUnits="userSpaceOnUse" color-interpolation-filters="sRGB">
<feFlood flood-opacity="0" result="BackgroundImageFix"/>
<feColorMatrix in="SourceAlpha" type="matrix" values="0 0 0 0 0 0 0 0 0 0 0 0 0 0 0 0 0 0 127 0" result="hardAlpha"/>
<feOffset dy="2.52762"/>
<feGaussianBlur stdDeviation="2.78039"/>
<feColorMatrix type="matrix" values="0 0 0 0 0 0 0 0 0 0.258824 0 0 0 0 0.823529 0 0 0 0.1 0"/>
<feBlend mode="normal" in2="BackgroundImageFix" result="effect1_dropShadow_8819_11792"/>
<feColorMatrix in="SourceAlpha" type="matrix" values="0 0 0 0 0 0 0 0 0 0 0 0 0 0 0 0 0 0 127 0" result="hardAlpha"/>
<feOffset dy="9.60497"/>
<feGaussianBlur stdDeviation="4.80249"/>
<feColorMatrix type="matrix" values="0 0 0 0 0 0 0 0 0 0.258824 0 0 0 0 0.823529 0 0 0 0.09 0"/>
<feBlend mode="normal" in2="effect1_dropShadow_8819_11792" result="effect2_dropShadow_8819_11792"/>
<feColorMatrix in="SourceAlpha" type="matrix" values="0 0 0 0 0 0 0 0 0 0 0 0 0 0 0 0 0 0 127 0" result="hardAlpha"/>
<feOffset dy="22.2431"/>
<feGaussianBlur stdDeviation="6.57182"/>
<feColorMatrix type="matrix" values="0 0 0 0 0 0 0 0 0 0.258824 0 0 0 0 0.823529 0 0 0 0.05 0"/>
<feBlend mode="normal" in2="effect2_dropShadow_8819_11792" result="effect3_dropShadow_8819_11792"/>
<feColorMatrix in="SourceAlpha" type="matrix" values="0 0 0 0 0 0 0 0 0 0 0 0 0 0 0 0 0 0 127 0" result="hardAlpha"/>
<feOffset dy="39.4309"/>
<feGaussianBlur stdDeviation="7.83564"/>
<feColorMatrix type="matrix" values="0 0 0 0 0 0 0 0 0 0.258824 0 0 0 0 0.823529 0 0 0 0.01 0"/>
<feBlend mode="normal" in2="effect3_dropShadow_8819_11792" result="effect4_dropShadow_8819_11792"/>
<feBlend mode="normal" in="SourceGraphic" in2="effect4_dropShadow_8819_11792" result="shape"/>
</filter>
</defs>
</svg>
